<?xml version="1.0" encoding="UTF-8" standalone="no"?>
<!-- Created with Inkscape (http://www.inkscape.org/) -->

<svg
   version="1.1"
   id="svg1"
   width="1506.7896"
   height="820.32135"
   viewBox="0 0 1506.7896 820.32135"
   xml:space="preserve"
   xmlns="http://www.w3.org/2000/svg"
   xmlns:svg="http://www.w3.org/2000/svg"><defs
     id="defs1" /><g
     id="g1"
     transform="translate(-1.2115303,0.88543528)"><g
       id="g2"
       transform="matrix(1.0091344,0,0,1.0039688,-11.402136,-3.3747615)"><path
         id="Disabled"
         fill="none"
         stroke="#000000"
         stroke-width="1"
         d="m 947.99,702.15 c 0,0 0.23,-26.26 0.23,-26.26 0,0 218.29,0.11 218.29,0.11 0,0 29.3,1.06 55.34,-6 23.59,-6.4 44.16,-20.99 44.16,-20.99 0,0 15.12,23.2 15.12,23.2 0,0 -22.63,18.56 -48.25,25.45 -31.13,8.37 -66.34,5.37 -66.34,5.37 z M 1370,544.04 c -2.83,14.31 -10,28.34 -10,28.34 0,0 -25.3,-9.14 -25.3,-9.14 0,0 5.91,-12.45 8.18,-24.91 2.82,-15.55 2.13,-31.81 2.13,-31.81 0,0 -0.51,-183.48 -0.51,-183.48 0,0 28.5,-0.03 28.5,-0.03 0,0 0.02,183.46 0.02,183.46 0,0 0.57,19.4 -3.02,37.57 z" /><path
         id="Normal 10"
         fill="none"
         stroke="#000000"
         stroke-width="1"
         d="m 1399.02,400 c 0,0 0.06,106.14 0.06,106.14 0,0 0.41,19.06 -1.58,35.51 -1.49,12.4 -5.51,23.35 -5.51,23.35 0,0 69.17,24.13 69.17,24.13 0,0 1.91,-6.85 1.91,-6.85 0,0 14.93,4.13 14.93,4.13 0,0 2,-6.41 2,-6.41 0,0 16.02,5.36 16.02,5.36 0,0 4.58,-17.1 6.68,-35.36 2.44,-21.2 2.45,-43.99 2.45,-43.99 0,0 -0.19,-106.01 -0.19,-106.01 z m 43.44,270 c 15.23,-24.04 25.54,-50.96 25.54,-50.96 0,0 -84.86,-26.95 -84.86,-26.95 0,0 -19.84,35.39 -19.84,35.39 0,0 13.68,8.72 13.95,9.05 0.13,0.09 -2.02,3.47 -2.13,3.47 0.11,0 13.1,10 13.1,10 0,0 -5.87,8.4 -12.6,16.66 -5.84,7.16 -12.66,14.33 -12.66,14.33 0,0 40.19,40.44 40.19,40.44 0,0 22.22,-24.45 39.31,-51.43 z" /><path
         id="Normal 9"
         fill="none"
         stroke="#000000"
         stroke-width="1"
         d="m 1336,226.93 c -9.5,-14.26 -21.04,-26.93 -21.04,-26.93 0,0 12.07,-10 12.07,-10 0,0 -3.48,-3.54 -3.48,-3.54 0,0 5.94,-6.05 5.94,-6.05 0,0 5.52,5.67 5.52,5.67 0,0 18.03,-16.08 18.03,-16.08 0,0 -7.05,-6.98 -7.05,-6.98 0,0 12,-12 12,-12 0,0 -1.98,-1.96 -1.98,-1.96 0,0 5.91,-5.92 5.91,-5.92 0,0 2.07,1.87 2.07,1.87 0,0 5.75,-5.01 5.75,-5.01 0,0 8.24,9.12 8.24,9.12 0,0 10.98,-11.14 10.98,-11.14 0,0 -1,-1.01 -1,-1.01 0,0 13.1,-10.98 13.1,-10.98 0,0 -4.53,-4.67 -4.53,-4.67 0,0 5.67,-5.48 5.67,-5.48 0,0 22.78,23.71 40.02,50.83 15.08,23.74 24.91,51.34 24.91,51.34 0,0 -114.08,39.17 -114.08,39.17 0,0 -7.5,-15.92 -17.05,-30.25 z m 61.74,73.07 c -1.64,-13.34 -5.79,-26.03 -5.79,-26.03 0,0 84.8,-29.5 84.8,-29.5 0,0 3.25,13.62 3.25,13.62 0,0 15.15,-5.06 15.15,-5.06 0,0 5.27,20.19 7.39,36.97 2.77,21.96 2.56,41.92 2.56,41.91 0,-0.04 -0.14,68.09 -0.14,68.09 0,0 -105.91,0 -105.91,0 0,0 0.03,-67.98 0.03,-67.98 0,0 0.56,-16.5 -1.34,-32.02 z" /><path
         id="Normal 8"
         fill="none"
         stroke="#000000"
         stroke-width="1"
         d="m 1102.99,19 c 0,0 83.04,-0.01 83.04,-0.01 0,0 -0.07,-15.99 -0.07,-15.99 0,0 24.18,0.66 48.24,4.66 20.72,3.45 41.82,10.32 41.82,10.32 0,0 -2.94,8.97 -2.94,8.97 0,0 -4.97,-2.31 -10.34,-4.08 -5.16,-1.7 -11.89,-2.87 -11.89,-2.87 0,0 -32.8,109.14 -32.8,109.14 0,0 -14.03,-3.04 -28.05,-4.07 -14.52,-1.06 -29.05,-0.1 -29.05,-0.1 0,0 0.06,-24.97 0.06,-24.97 0,0 -58.07,0 -58.07,0 z m 243.05,51 c -32.86,-20.61 -70.99,-33.95 -70.99,-33.95 0,0 -33.95,116.09 -33.95,116.09 0,0 20.68,6.06 38.9,17.86 18.71,12.12 34.98,30 34.98,30 0,0 12.06,-10 12.06,-10 0,0 -3.51,-3.53 -3.51,-3.53 0,0 5.95,-6.05 5.95,-6.05 0,0 5.53,5.69 5.53,5.69 0,0 18.01,-16.11 18.01,-16.11 0,0 -7.01,-6.96 -7.01,-6.96 0,0 12.01,-12.01 12.01,-12.01 0,0 -2.01,-1.98 -2.01,-1.98 0,0 5.91,-5.91 5.91,-5.91 0,0 2.07,1.88 2.07,1.88 0,0 5.75,-5.02 5.75,-5.02 0,0 8.24,9.11 8.24,9.11 0,0 11,-11.13 11,-11.13 0,0 -1,-1.01 -1,-1.01 0,0 6.98,-5.87 6.98,-5.87 0,0 6.1,-5.1 6.1,-5.1 0,0 -4.53,-4.65 -4.53,-4.65 0,0 5.66,-5.53 5.66,-5.53 0,0 -25.51,-26.6 -56.15,-45.82 z" /><path
         id="Normal 7"
         fill="none"
         stroke="#000000"
         stroke-width="1"
         d="m 940,18.98 c 0,0 0,90.02 0,90.02 0,0 78,0 78,0 0,0 0,31.99 0,31.99 0,0 19,0.01 19,0.01 0,0 0,-106.02 0,-106.02 0,0 -10,0.03 -10,0.03 0,0 0.03,-15.98 0.03,-15.98 0,0 10.03,0 10.03,0 0,0 -0.06,-16.03 -0.06,-16.03 0,0 -77.99,-0.01 -77.99,-0.01 0,0 -0.01,16 -0.01,16 z m 124.06,105.98 c 0,0 38.86,0.07 38.86,0.07 0,0 0.08,-106.02 0.08,-106.02 0,0 0,-7.99 0,-7.99 0,0 48.99,-0.01 48.99,-0.01 0,0 0,-7.99 0,-7.99 0,0 -78,-0.04 -78,-0.04 0,0 0.06,32.02 0.06,32.02 0,0 -10.06,0.01 -10.06,0.01 z" /><path
         id="Normal 6"
         fill="none"
         stroke="#000000"
         stroke-width="1"
         d="m 758.98,19 c 0,0 0.02,73 0.02,73 0,0 97,0 97,0 0,0 0.15,-73 0.15,-73 0,0 25.84,0 25.84,0 0,0 0.01,72.98 0.01,72.98 0,0 9.92,0.02 9.92,0.02 0,0 0.09,16.96 0.09,16.96 0,0 47.99,0.04 47.99,0.04 0,0 0,-90.02 0,-90.02 0,0 -23.02,0.05 -23.02,0.05 0,0 0.02,-16.04 0.02,-16.04 0,0 -77,0.01 -77,0.01 0,0 0,15.98 0,15.98 z" /><path
         id="Normal 5"
         fill="none"
         stroke="#000000"
         stroke-width="1"
         d="m 578.55,19 c 0,0 -0.04,90 -0.04,90 0,0 48.49,0 48.49,0 0,0 -0.02,-17 -0.02,-17 0,0 10.02,0 10.02,0 0,0 0.06,-73 0.06,-73 0,0 26.84,0.04 26.84,0.04 0,0 0.09,72.96 0.09,72.96 0,0 95.02,0 95.02,0 0,0 0.06,-73 -0.03,-73 -0.08,0 -79.97,0 -79.97,0 0,0 -0.06,-16 0,-16 0.05,0 -78.02,0.02 -78.02,0.02 0,0 0.04,15.98 0.04,15.98 z" /><path
         id="Normal 4"
         fill="none"
         stroke="#000000"
         stroke-width="1"
         d="m 416.01,19.01 c 0,0 -0.01,105.99 -0.01,105.99 0,0 39.01,0 39.01,0 0,0 0.05,-90.02 0.05,-90.02 0,0 -10.07,-0.04 -10.07,-0.04 0,0 0,-15.86 0,-15.86 0,0 0.04,-16.1 0.04,-16.1 0,0 -78,0.08 -78,0.08 0,0 -0.03,7.92 -0.03,7.92 0.01,0 49.02,0.05 49.02,0.05 z m 66.08,121.94 c 0,0 18.88,0.08 18.88,0.08 0,0 0,-32.04 0,-32.04 0,0 77.54,0.01 77.54,0.01 0,0 0.04,-90 0.04,-90 0,0 -18.55,0.01 -18.55,0.01 0,0 0,-15.97 0,-15.97 0,0 -78.01,0 -78.01,0 0,0 0.04,7.97 0.04,7.97 0,0 9.99,0.07 9.99,0.07 0,0 -0.04,24.01 -0.04,24.01 0,0 -10.03,0 -10.03,0 z" /><path
         id="Normal 3"
         fill="none"
         stroke="#000000"
         stroke-width="1"
         d="m 239.38,170.65 c -19.46,13.01 -35.32,30.28 -35.32,30.28 0,0 -12.03,-10.93 -12.03,-10.93 0,0 1.53,-1.52 1.53,-1.52 0,0 -12.31,-11.41 -12.31,-11.41 0,0 -3.25,3.95 -3.25,3.95 0,0 -11.91,-11.02 -11.91,-11.02 0,0 2.1,-1.9 2.1,-1.9 0,0 -12.14,-11.17 -12.14,-11.17 0,0 -4.02,4.14 -4.02,4.14 0,0 -11.27,-11.07 -11.27,-11.07 0,0 -5.75,6.15 -5.75,6.15 0,0 -17.09,-18.27 -17.09,-18.27 0,0 2.99,-2.85 2.99,-2.85 0,0 -12.01,-11.24 -12.01,-11.24 0,0 28.14,-32 61.1,-53.79 34.09,-22.54 73.03,-34.9 73.03,-34.9 0,0 34.1,116.98 34.1,116.98 0,0 -20.86,7.28 -37.75,18.57 z m 17.94,-148.3 c -5.87,1.62 -11.73,3.76 -11.73,3.76 0,0 -2.84,-7.31 -2.84,-7.31 0,0 16.35,-6.06 37.25,-9.71 24,-4.19 52.99,-6.03 52.99,-6.03 0,0 0,16.02 0,16.02 0,0 83.01,-0.06 83.01,-0.06 0,0 0.04,80.98 0.04,80.98 0,0 -59.1,0 -59.1,0 0,0 0.05,24.94 0.05,24.94 0,0 -16.46,-0.68 -31.45,0.4 -13.42,0.98 -25.54,3.73 -25.54,3.73 0,0 -30,-101.13 -30,-101.13 0,0 -2.13,-7.94 -2.13,-7.94 0,0 -5.32,0.92 -10.55,2.35 z" /><path
         id="Normal 2"
         fill="none"
         stroke="#000000"
         stroke-width="1"
         d="m 13,400 c 0,0 138.99,0 138.99,0 0,0 -0.07,-3.05 -0.56,-68.16 -0.86,-27.4 6.59,-47.9 6.59,-47.9 0,0 -100.03,-32.86 -100.03,-32.86 0,0 -35.99,3 -35.99,3 0,0 -4.11,18.66 -6.33,37.86 -2.24,19.36 -2.6,39.27 -2.6,39.27 z M 181.88,228.35 c -9.5,14.42 -15.93,30.55 -15.93,30.55 0,0 -115.56,-40.6 -115.56,-40.6 0,0 10.38,-27.16 24.69,-50.27 14.94,-24.13 33.83,-44.24 33.83,-44.24 0,0 12,11.24 12,11.24 0,0 -3,2.87 -3,2.87 0,0 17.12,18.27 17.12,18.27 0,0 5.75,-6.17 5.75,-6.17 0,0 11.24,11.09 11.24,11.09 0,0 4.02,-4.15 4.02,-4.15 0,0 12.14,11.18 12.14,11.18 0,0 -2.11,1.88 -2.11,1.88 0,0 11.95,11.02 11.95,11.02 0,0 3.26,-3.96 3.26,-3.96 0,0 12.26,11.41 12.26,11.41 0,0 -1.53,1.53 -1.53,1.53 0,0 12.07,10.95 12.07,10.95 0,0 -12.63,12.85 -22.2,27.4 z" /><path
         id="Normal 1"
         fill="none"
         stroke="#000000"
         stroke-width="1"
         d="m 116.03,657.34 c 14.59,21.99 32.97,39.73 32.97,39.73 0,0 -29,29.03 -29,29.03 0,0 -22.8,-22.64 -40,-48.1 -16.28,-24.1 -27.02,-51.09 -27.02,-51.09 0,0 38.95,-15.82 38.95,-15.82 0,0 10.17,25.28 24.1,46.25 z M 153.1,533.76 c 1.34,11.08 4.75,20.64 4.75,20.64 0,0 -82.57,34.19 -82.57,34.19 0,0 -0.06,-0.54 -2.17,-5.83 -16.17,5.36 -0.26,0.03 -16.17,5.33 -1.81,-5.72 -1.93,-6.12 -1.93,-6.12 0,0 -15.01,4.02 -15.01,4.02 0,0 -1.93,-5.99 -1.93,-5.99 0,0 -14.96,5.06 -14.96,5.06 0,0 -4.18,-13.78 -6.31,-30.53 -2.8,-22.05 -3.75,-48.55 -3.75,-48.55 0,0 -0.04,-105.98 -0.04,-105.98 0,0 138.99,0 138.99,0 0,0 0.01,106.01 0.01,106.01 0,0 -0.47,14.79 1.09,27.75 z" /><path
         id="VIP-Disabled"
         fill="none"
         stroke="#000000"
         stroke-width="1"
         d="m 381.89,783 c 0,0 59.1,0.08 59.1,0.08 0,0 0,28.93 0,28.93 0,0 -59.02,0 -59.02,0 z m 231.17,0.02 c 0,0 59.98,0.04 59.98,0.04 0,0 -0.06,28.87 -0.06,28.87 0,0 -59.96,0.08 -59.96,0.08 z m 232.93,0.02 c 0,0 61.97,-0.03 61.97,-0.03 0,0 0.03,28.96 0.03,28.96 0,0 -62,-0.03 -62,-0.03 z m 231,-0.02 c 0,0 60.01,0.11 60.01,0.11 0,0 -0.04,28.84 -0.04,28.84 0,0 -60,0 -60,0 z" /><path
         id="L-VIP"
         fill="none"
         stroke="#000000"
         stroke-width="1"
         d="m 273.56,812.08 c 34.29,8.24 68.5,5.94 68.5,5.94 0,0 -0.04,-91.08 -0.04,-91.08 0,0 -31.14,0.63 -58.94,-6.94 -27.15,-7.4 -50.98,-23.01 -50.98,-23.01 0,0 -32.1,49.97 -32.1,49.97 0,0 4.88,3.04 4.88,3.04 0,0 -8.89,13.12 -8.89,13.12 0,0 1.95,1.74 4.01,3.08 2.46,1.6 5.12,2.84 5.12,2.84 0,0 -9.04,13.88 -9.04,13.88 0,0 39.02,19.91 77.48,29.16 z m -75.86,-139 c 5.29,4.55 12.3,9.69 12.3,9.69 0,0 -33.25,49.62 -33.25,49.62 0,0 -3.41,-2.39 -3.41,-2.39 0,0 -8.24,13.13 -8.24,13.13 0,0 -10.87,-8.12 -10.87,-8.12 0,0 -9.82,12.57 -9.82,12.57 0,0 -22.26,-20.03 -22.26,-20.03 0,0 65.33,-64.16 65.33,-64.16 0,0 4.28,4.59 10.22,9.69 z" /><path
         id="VVIP"
         fill="none"
         stroke="#000000"
         stroke-width="1"
         d="m 490,785.98 c 0,0 73.04,0.06 73.04,0.06 0,0 0.1,13.07 0.1,13.07 0,0 -10.13,0 -10.13,0 0,0 0.01,16.8 0.01,16.8 0,0 -53.02,0.07 -53.02,0.07 0,0 0,-16.97 0,-16.97 0,0 -10,0 -10,0 z m 232.99,0.05 c 0,0 73.01,-0.04 73.01,-0.04 0,0 0.04,13.05 0.04,13.05 0,0 -9.99,-0.02 -9.99,-0.02 0,0 -0.05,16.98 -0.05,16.98 0,0 -52.98,0.03 -52.98,0.03 0,0 0,-17.04 0,-17.04 0,0 -10.05,-0.01 -10.05,-0.01 z m 232.04,-0.01 c 0,0 72.96,0 72.96,0 0,0 0.03,13.98 0.03,13.98 0,0 -10,0 -10,0 0,0 -0.02,16 -0.02,16 0,0 -53.02,-0.02 -53.02,-0.02 0,0 0.04,-15.98 0.04,-15.98 0,0 -10.01,0 -10.01,0 z" /><path
         id="VIP"
         fill="none"
         stroke="#000000"
         stroke-width="1"
         d="m 344.93,800 c 0,0 33.99,0 33.99,0 0,0 0,-20 0,-20 0,0 19.07,0 19.07,0 0,0 0.17,-52.96 0.17,-52.96 0,0 -53.29,-0.06 -53.29,-0.06 z M 428,727 c 0,0 -0.03,53 -0.03,53 0,0 18.02,0 18.02,0 0,0 -0.03,19.01 -0.03,19.01 0,0 22.05,0 22.05,0 0,0 -0.03,-19.01 -0.03,-19.01 0,0 119.04,0 119.04,0 0,0 0,19 0,19 0,0 22.04,-0.04 22.04,-0.04 0,0 -0.04,-18.96 -0.04,-18.96 0,0 17.94,0 17.94,0 0,0 0.06,-52.95 0.06,-52.95 z m 232,0.02 c 0,0 0,52.98 0,52.98 0,0 17.01,0 17.01,0 0,0 0.03,19 0.03,19 0,0 21.96,0 21.96,0 0,0 -0.03,-19 -0.03,-19 0,0 120.1,0 120.1,0 0,0 -0.03,18.97 -0.03,18.97 0,0 23.9,0.06 23.9,0.06 0,0 0.14,-19.03 0.14,-19.03 0,0 15.87,0 15.87,0 0,0 0.03,-52.97 0.03,-52.97 0,0 -64.06,0.03 -64.06,0.03 0,0 0.06,18.94 0.06,18.94 0,0 -70.95,-0.03 -70.95,-0.03 0,0 -0.09,-18.97 -0.09,-18.97 z m 231.95,0 c 0,0 -0.01,52.98 -0.01,52.98 0,0 18.06,0 18.06,0 0,0 0,19 0,19 0,0 21.98,0 21.98,0 0,0 -0.04,-19 -0.04,-19 0,0 23.05,0 23.05,0 0,0 73.03,0 73.03,0 0,0 23.92,0 23.92,0 0,0 0.11,19.01 0.11,19.01 0,0 21.94,-0.03 21.94,-0.03 0,0 0.02,-18.98 0.02,-18.98 0,0 18,0 18,0 0,0 0.01,-53.01 0.01,-53.01 z m 229.04,-0.01 c 0,0 0.02,52.99 0.02,52.99 0,0 20.95,0 20.95,0 0,0 0.07,19.01 0.07,19.01 0,0 30.96,0 30.96,0 0,0 -0.06,-72.02 -0.06,-72.02 z" /><g
         id="R-VIP-G"
         transform="matrix(0.99094828,0,0,0.99604689,11.038902,2.0620748)"><circle
           style="fill:#00c820;fill-opacity:1"
           id="R-VIP-S"
           cx="1181.4664"
           cy="732.74652"
           r="4.1149406" /><circle
           style="fill:#00c820;fill-opacity:1"
           id="R-VIP-S-6"
           cx="1191.3494"
           cy="732.54077"
           r="4.1149406" /><circle
           style="fill:#00c820;fill-opacity:1"
           id="R-VIP-S-8"
           cx="1201.2633"
           cy="731.73212"
           r="4.1149406" /><circle
           style="fill:#00c820;fill-opacity:1"
           id="R-VIP-S-80"
           cx="1211.3398"
           cy="730.74176"
           r="4.1149406" /><circle
           style="fill:#00c820;fill-opacity:1"
           id="R-VIP-S-9"
           cx="1221.4213"
           cy="729.25366"
           r="4.1149406" /><circle
           style="fill:#00c820;fill-opacity:1"
           id="R-VIP-S-4"
           cx="1231.0912"
           cy="727.54077"
           r="4.1149406" /><circle
           style="fill:#00c820;fill-opacity:1"
           id="R-VIP-S-94"
           cx="1241.0624"
           cy="724.91394"
           r="4.1149406" /><circle
           style="fill:#00c820;fill-opacity:1"
           id="R-VIP-S-2"
           cx="1250.6416"
           cy="721.47845"
           r="4.1149406" /><circle
           style="fill:#00c820;fill-opacity:1"
           id="R-VIP-S-86"
           cx="1260.0096"
           cy="718.76556"
           r="4.1149406" /><circle
           style="fill:#00c820;fill-opacity:1"
           id="R-VIP-S-26"
           cx="1268.7418"
           cy="714.57416"
           r="4.1149406" /><circle
           style="fill:#00c820;fill-opacity:1"
           id="R-VIP-S-66"
           cx="1277.3063"
           cy="710.13873"
           r="4.1149406" /><circle
           style="fill:#00c820;fill-opacity:1"
           id="R-VIP-S-1"
           cx="1285.6268"
           cy="705.22479"
           r="4.1149406" /><circle
           style="fill:#00c820;fill-opacity:1"
           id="R-VIP-S-47"
           cx="1314.9377"
           cy="685.78479"
           r="4.1149406" /><circle
           style="fill:#00c820;fill-opacity:1"
           id="R-VIP-S-21"
           cx="1322.4689"
           cy="679.52148"
           r="4.1149406" /><circle
           style="fill:#00c820;fill-opacity:1"
           id="R-VIP-S-15"
           cx="1330.3976"
           cy="672.88507"
           r="4.1149406" /><circle
           style="fill:#00c820;fill-opacity:1"
           id="R-VIP-S-68"
           cx="1337.962"
           cy="666.18176"
           r="4.1149406" /><circle
           style="fill:#00c820;fill-opacity:1"
           id="R-VIP-S-3"
           cx="1348.4836"
           cy="678.27289"
           r="4.1149406" /><circle
           style="fill:#00c820;fill-opacity:1"
           id="R-VIP-S-0"
           cx="1341.3398"
           cy="685.09113"
           r="4.1149406" /><circle
           style="fill:#00c820;fill-opacity:1"
           id="R-VIP-S-5"
           cx="1333.5549"
           cy="691.95239"
           r="4.1149406" /><circle
           style="fill:#00c820;fill-opacity:1"
           id="R-VIP-S-52"
           cx="1325.6506"
           cy="698.20605"
           r="4.1149406" /><circle
           style="fill:#00c820;fill-opacity:1"
           id="R-VIP-S-521"
           cx="1294.9569"
           cy="718.84204"
           r="4.1149406" /><circle
           style="fill:#00c820;fill-opacity:1"
           id="R-VIP-S-160"
           cx="1334.6892"
           cy="711.01923"
           r="4.1149406" /><circle
           style="fill:#00c820;fill-opacity:1"
           id="R-VIP-S-528"
           cx="1343.1581"
           cy="704.4881"
           r="4.1149406" /><circle
           style="fill:#00c820;fill-opacity:1"
           id="R-VIP-S-037"
           cx="1350.8041"
           cy="697.99036"
           r="4.1149406" /><circle
           style="fill:#00c820;fill-opacity:1"
           id="R-VIP-S-07"
           cx="1358.115"
           cy="690.95697"
           r="4.1149406" /><circle
           style="fill:#00c820;fill-opacity:1"
           id="R-VIP-S-942"
           cx="1372.1534"
           cy="699.74176"
           r="4.1149406" /><circle
           style="fill:#00c820;fill-opacity:1"
           id="R-VIP-S-19"
           cx="1365.7035"
           cy="706.42126"
           r="4.1149406" /><circle
           style="fill:#00c820;fill-opacity:1"
           id="R-VIP-S-976"
           cx="1358.6796"
           cy="712.65564"
           r="4.1149406" /><circle
           style="fill:#00c820;fill-opacity:1"
           id="R-VIP-S-96"
           cx="1351.1676"
           cy="719.55035"
           r="4.1149406" /><circle
           style="fill:#00c820;fill-opacity:1"
           id="R-VIP-S-00"
           cx="1343.9667"
           cy="725.11493"
           r="4.1149406" /><circle
           style="fill:#00c820;fill-opacity:1"
           id="R-VIP-S-746"
           cx="1313.3494"
           cy="745.63647"
           r="4.1149406" /><circle
           style="fill:#00c820;fill-opacity:1"
           id="R-VIP-S-54"
           cx="1305.3064"
           cy="750.35901"
           r="4.1149406" /><circle
           style="fill:#00c820;fill-opacity:1"
           id="R-VIP-S-90"
           cx="1296.512"
           cy="755.08154"
           r="4.1149406" /><circle
           style="fill:#00c820;fill-opacity:1"
           id="R-VIP-S-35"
           cx="1287.0431"
           cy="759.79443"
           r="4.1149406" /><circle
           style="fill:#00c820;fill-opacity:1"
           id="R-VIP-S-351"
           cx="1278.0238"
           cy="763.56"
           r="4.1149406" /><circle
           style="fill:#00c820;fill-opacity:1"
           id="R-VIP-S-009"
           cx="1269.2775"
           cy="767.1676"
           r="4.1149406" /><circle
           style="fill:#00c820;fill-opacity:1"
           id="R-VIP-S-11"
           cx="1259.8663"
           cy="770.08154"
           r="4.1149406" /><circle
           style="fill:#00c820;fill-opacity:1"
           id="R-VIP-S-79"
           cx="1249.842"
           cy="773.22028"
           r="4.1149406" /><circle
           style="fill:#00c820;fill-opacity:1"
           id="R-VIP-S-972"
           cx="1240.842"
           cy="776.02887"
           r="4.1149406" /><circle
           style="fill:#00c820;fill-opacity:1"
           id="R-VIP-S-729"
           cx="1231.2679"
           cy="777.88049"
           r="4.1149406" /><circle
           style="fill:#00c820;fill-opacity:1"
           id="R-VIP-S-37"
           cx="1221.1003"
           cy="780.12457"
           r="4.1149406" /><circle
           style="fill:#00c820;fill-opacity:1"
           id="R-VIP-S-23"
           cx="1211.1626"
           cy="781.35901"
           r="4.1149406" /><circle
           style="fill:#00c820;fill-opacity:1"
           id="R-VIP-S-32"
           cx="1201.0669"
           cy="782.40204"
           r="4.1149406" /><circle
           style="fill:#00c820;fill-opacity:1"
           id="R-VIP-S-979"
           cx="1191.4497"
           cy="783.21063"
           r="4.1149406" /><circle
           style="fill:#00c820;fill-opacity:1"
           id="R-VIP-S-24"
           cx="1181.6411"
           cy="783.25366"
           r="4.1149406" /><circle
           style="fill:#00c820;fill-opacity:1"
           id="R-VIP-S-211"
           cx="1181.3925"
           cy="797.96655"
           r="4.1149406" /><circle
           style="fill:#00c820;fill-opacity:1"
           id="R-VIP-S-967"
           cx="1191.115"
           cy="797.68909"
           r="4.1149406" /><circle
           style="fill:#00c820;fill-opacity:1"
           id="R-VIP-S-61"
           cx="1201.5601"
           cy="797.44507"
           r="4.1149406" /><circle
           style="fill:#00c820;fill-opacity:1"
           id="R-VIP-S-838"
           cx="1211.7611"
           cy="796.21063"
           r="4.1149406" /><circle
           style="fill:#00c820;fill-opacity:1"
           id="R-VIP-S-57"
           cx="1221.3352"
           cy="794.77521"
           r="4.1149406" /><circle
           style="fill:#00c820;fill-opacity:1"
           id="R-VIP-S-408"
           cx="1231.4451"
           cy="793.0719"
           r="4.1149406" /><circle
           style="fill:#00c820;fill-opacity:1"
           id="R-VIP-S-229"
           cx="1241.5408"
           cy="791.40204"
           r="4.1149406" /><circle
           style="fill:#00c820;fill-opacity:1"
           id="R-VIP-S-13"
           cx="1251.115"
           cy="789.11493"
           r="4.1149406" /><circle
           style="fill:#00c820;fill-opacity:1"
           id="R-VIP-S-85"
           cx="1261.1484"
           cy="786.11493"
           r="4.1149406" /><circle
           style="fill:#00c820;fill-opacity:1"
           id="R-VIP-S-007"
           cx="1270.6031"
           cy="782.96655"
           r="4.1149406" /><circle
           style="fill:#00c820;fill-opacity:1"
           id="R-VIP-S-554"
           cx="1280.0482"
           cy="779.53113"
           r="4.1149406" /><circle
           style="fill:#00c820;fill-opacity:1"
           id="R-VIP-S-51"
           cx="1288.8806"
           cy="775.54077"
           r="4.1149406" /><circle
           style="fill:#00c820;fill-opacity:1"
           id="R-VIP-S-110"
           cx="1298.6365"
           cy="771.49774"
           r="4.1149406" /><circle
           style="fill:#00c820;fill-opacity:1"
           id="R-VIP-S-93"
           cx="1307.6031"
           cy="767.06226"
           r="4.1149406" /><circle
           style="fill:#00c820;fill-opacity:1"
           id="R-VIP-S-12"
           cx="1316.0386"
           cy="762.43542"
           r="4.1149406" /><circle
           style="fill:#00c820;fill-opacity:1"
           id="R-VIP-S-599"
           cx="1352.6796"
           cy="737.40204"
           r="4.1149406" /><circle
           style="fill:#00c820;fill-opacity:1"
           id="R-VIP-S-76"
           cx="1361.4021"
           cy="730.87085"
           r="4.1149406" /><circle
           style="fill:#00c820;fill-opacity:1"
           id="R-VIP-S-39"
           cx="1369.4451"
           cy="724.6795"
           r="4.1149406" /><circle
           style="fill:#00c820;fill-opacity:1"
           id="R-VIP-S-790"
           cx="1377.3064"
           cy="718.15796"
           r="4.1149406" /><circle
           style="fill:#00c820;fill-opacity:1"
           id="R-VIP-S-05"
           cx="1384.5504"
           cy="710.77521"
           r="4.1149406" /><circle
           style="fill:#00c820;fill-opacity:1"
           id="R-VIP-S-69"
           cx="1394.8279"
           cy="723.34937"
           r="4.1149406" /><circle
           style="fill:#00c820;fill-opacity:1"
           id="R-VIP-S-578"
           cx="1387.0193"
           cy="731.01923"
           r="4.1149406" /><circle
           style="fill:#00c820;fill-opacity:1"
           id="R-VIP-S-17"
           cx="1379.115"
           cy="737.11493"
           r="4.1149406" /><circle
           style="fill:#00c820;fill-opacity:1"
           id="R-VIP-S-45"
           cx="1371.4978"
           cy="743.63647"
           r="4.1149406" /><circle
           style="fill:#00c820;fill-opacity:1"
           id="R-VIP-S-866"
           cx="1315.115"
           cy="781.11493"
           r="4.1149406" /><circle
           style="fill:#00c820;fill-opacity:1"
           id="R-VIP-S-794"
           cx="1306.115"
           cy="785.44507"
           r="4.1149406" /><circle
           style="fill:#00c820;fill-opacity:1"
           id="R-VIP-S-88"
           cx="1297.2107"
           cy="789.82782"
           r="4.1149406" /><circle
           style="fill:#00c820;fill-opacity:1"
           id="R-VIP-S-92"
           cx="1288.115"
           cy="793.11493"
           r="4.1149406" /><circle
           style="fill:#00c820;fill-opacity:1"
           id="R-VIP-S-46"
           cx="1278.3494"
           cy="797.01923"
           r="4.1149406" /><circle
           style="fill:#00c820;fill-opacity:1"
           id="R-VIP-S-964"
           cx="1269.2107"
           cy="800.40204"
           r="4.1149406" /><circle
           style="fill:#00c820;fill-opacity:1"
           id="R-VIP-S-024"
           cx="1259.7322"
           cy="803.21063"
           r="4.1149406" /><circle
           style="fill:#00c820;fill-opacity:1"
           id="R-VIP-S-91"
           cx="1250.0624"
           cy="805.3924"
           r="4.1149406" /><circle
           style="fill:#00c820;fill-opacity:1"
           id="R-VIP-S-930"
           cx="1240.2538"
           cy="807.54077"
           r="4.1149406" /><circle
           style="fill:#00c820;fill-opacity:1"
           id="R-VIP-S-01"
           cx="1230.9236"
           cy="809.15796"
           r="4.1149406" /><circle
           style="fill:#00c820;fill-opacity:1"
           id="R-VIP-S-023"
           cx="1221.1676"
           cy="810.73212"
           r="4.1149406" /><circle
           style="fill:#00c820;fill-opacity:1"
           id="R-VIP-S-944"
           cx="1211.3494"
           cy="811.92352"
           r="4.1149406" /><circle
           style="fill:#00c820;fill-opacity:1"
           id="R-VIP-S-48"
           cx="1201.5074"
           cy="812.91394"
           r="4.1149406" /><circle
           style="fill:#00c820;fill-opacity:1"
           id="R-VIP-S-634"
           cx="1191.6796"
           cy="813.92352"
           r="4.1149406" /><circle
           style="fill:#00c820;fill-opacity:1"
           id="R-VIP-S-212"
           cx="1181.3494"
           cy="813.63647"
           r="4.1149406" /><circle
           style="fill:#00c820;fill-opacity:1"
           id="R-VIP-S-16"
           cx="1286.9858"
           cy="722.68909"
           r="4.1149406" /><circle
           style="fill:#00c820;fill-opacity:1"
           id="R-VIP-S-83"
           cx="1277.7849"
           cy="727.01923"
           r="4.1149406" /><circle
           style="fill:#00c820;fill-opacity:1"
           id="R-VIP-S-55"
           cx="1268.7322"
           cy="730.96655"
           r="4.1149406" /><circle
           style="fill:#00c820;fill-opacity:1"
           id="R-VIP-S-84"
           cx="1259.4836"
           cy="734.81824"
           r="4.1149406" /><circle
           style="fill:#00c820;fill-opacity:1"
           id="R-VIP-S-33"
           cx="1250.2203"
           cy="737.88049"
           r="4.1149406" /><circle
           style="fill:#00c820;fill-opacity:1"
           id="R-VIP-S-59"
           cx="1240.7418"
           cy="741.12457"
           r="4.1149406" /><circle
           style="fill:#00c820;fill-opacity:1"
           id="R-VIP-S-56"
           cx="1230.8041"
           cy="743.74176"
           r="4.1149406" /><circle
           style="fill:#00c820;fill-opacity:1"
           id="R-VIP-S-22"
           cx="1221.0238"
           cy="745.49774"
           r="4.1149406" /><circle
           style="fill:#00c820;fill-opacity:1"
           id="R-VIP-S-269"
           cx="1211.2107"
           cy="747.30634"
           r="4.1149406" /><circle
           style="fill:#00c820;fill-opacity:1"
           id="R-VIP-S-7"
           cx="1201.5504"
           cy="748.54077"
           r="4.1149406" /><circle
           style="fill:#00c820;fill-opacity:1"
           id="R-VIP-S-36"
           cx="1191.5839"
           cy="749.55035"
           r="4.1149406" /><circle
           style="fill:#00c820;fill-opacity:1"
           id="R-VIP-S-471"
           cx="1181.2538"
           cy="749.78479"
           r="4.1149406" /><circle
           style="fill:#00c820;fill-opacity:1"
           id="R-VIP-S-72"
           cx="1181.2968"
           cy="765.49774"
           r="4.1149406" /><circle
           style="fill:#00c820;fill-opacity:1"
           id="R-VIP-S-50"
           cx="1191.5408"
           cy="765.29669"
           r="4.1149406" /><circle
           style="fill:#00c820;fill-opacity:1"
           id="R-VIP-S-97"
           cx="1201.4978"
           cy="764.68909"
           r="4.1149406" /><circle
           style="fill:#00c820;fill-opacity:1"
           id="R-VIP-S-74"
           cx="1211.2107"
           cy="763.3924"
           r="4.1149406" /><circle
           style="fill:#00c820;fill-opacity:1"
           id="R-VIP-S-40"
           cx="1221.5028"
           cy="761.63647"
           r="4.1149406" /><circle
           style="fill:#00c820;fill-opacity:1"
           id="R-VIP-S-158"
           cx="1231.4213"
           cy="759.77521"
           r="4.1149406" /><circle
           style="fill:#00c820;fill-opacity:1"
           id="R-VIP-S-680"
           cx="1241.0051"
           cy="757.77521"
           r="4.1149406" /><circle
           style="fill:#00c820;fill-opacity:1"
           id="R-VIP-S-228"
           cx="1250.2871"
           cy="755.20099"
           r="4.1149406" /><circle
           style="fill:#00c820;fill-opacity:1"
           id="R-VIP-S-67"
           cx="1260.0912"
           cy="751.71289"
           r="4.1149406" /><circle
           style="fill:#00c820;fill-opacity:1"
           id="R-VIP-S-03"
           cx="1269.23"
           cy="748.24402"
           r="4.1149406" /><circle
           style="fill:#00c820;fill-opacity:1"
           id="R-VIP-S-63"
           cx="1278.4355"
           cy="744.79443"
           r="4.1149406" /><circle
           style="fill:#00c820;fill-opacity:1"
           id="R-VIP-S-02"
           cx="1287.4978"
           cy="740.6795"
           r="4.1149406" /><circle
           style="fill:#00c820;fill-opacity:1"
           id="R-VIP-S-030"
           cx="1296.1008"
           cy="736.81818"
           r="4.1149406" /><circle
           style="fill:#00c820;fill-opacity:1"
           id="R-VIP-S-09"
           cx="1304.2633"
           cy="731.95697"
           r="4.1149406" /><path
           id="R-VIP"
           fill="none"
           stroke="#000000"
           stroke-width="1"
           d="m 1237.84,720 c -27.79,7.65 -60.86,7.01 -60.86,7.01 0,0 -0.03,92.04 -0.03,92.04 0,0 49.84,-0.79 85.52,-11.57 34.09,-8.54 58.7,-24.52 58.69,-24.52 -0.03,0 -8.38,-12.96 -8.38,-12.96 0,0 10.52,-6.45 10.52,-6.45 0,0 -8.92,-13.55 -8.92,-13.55 0,0 5.62,-2.97 5.62,-2.97 0,0 -34.01,-50.03 -34.01,-50.03 0,0 -21.46,15.65 -48.15,23 z m 70.06,-36.81 c 0,0 7.19,-5.01 13.96,-10.99 7.39,-6.51 14.4,-14.04 14.4,-14.04 0,0 65.85,64.72 65.85,64.72 0,0 -7,7.13 -14.51,13.79 -8.49,7.53 -17.6,14.7 -17.6,14.7 0,0 -10,-13.52 -10,-13.52 0,0 -9.1,6.58 -9.1,6.58 z"
           transform="matrix(1.0091344,0,0,1.0039688,-11.139736,-2.0702588)" /></g></g></g></svg>
