<svg version="1.1" id="svg1" viewBox="0 0 1506.79 820.321" xml:space="preserve" xmlns="http://www.w3.org/2000/svg"><g id="g2" transform="matrix(1.00913 0 0 1.00397 -12.614 -2.49)"><path id="Disabled" fill="none" stroke="#000" stroke-width="1" d="M947.99 702.15l.23-26.26 218.29.11s29.3 1.06 55.34-6c23.59-6.4 44.16-20.99 44.16-20.99l15.12 23.2s-22.63 18.56-48.25 25.45c-31.13 8.37-66.34 5.37-66.34 5.37zM1370 544.04c-2.83 14.31-10 28.34-10 28.34l-25.3-9.14s5.91-12.45 8.18-24.91c2.82-15.55 2.13-31.81 2.13-31.81l-.51-183.48 28.5-.03.02 183.46s.57 19.4-3.02 37.57z"/><path id="Normal 10" fill="none" stroke="#000" stroke-width="1" d="M1399.02 400l.06 106.14s.41 19.06-1.58 35.51c-1.49 12.4-5.51 23.35-5.51 23.35l69.17 24.13 1.91-6.85 14.93 4.13 2-6.41 16.02 5.36s4.58-17.1 6.68-35.36c2.44-21.2 2.45-43.99 2.45-43.99l-.19-106.01zm43.44 270c15.23-24.04 25.54-50.96 25.54-50.96l-84.86-26.95-19.84 35.39s13.68 8.72 13.95 9.05c.13.09-2.02 3.47-2.13 3.47.11 0 13.1 10 13.1 10s-5.87 8.4-12.6 16.66c-5.84 7.16-12.66 14.33-12.66 14.33l40.19 40.44s22.22-24.45 39.31-51.43z"/><path id="Normal 9" fill="none" stroke="#000" stroke-width="1" d="M1336 226.93c-9.5-14.26-21.04-26.93-21.04-26.93l12.07-10-3.48-3.54 5.94-6.05 5.52 5.67 18.03-16.08-7.05-6.98 12-12-1.98-1.96 5.91-5.92 2.07 1.87 5.75-5.01 8.24 9.12 10.98-11.14-1-1.01 13.1-10.98-4.53-4.67 5.67-5.48s22.78 23.71 40.02 50.83c15.08 23.74 24.91 51.34 24.91 51.34l-114.08 39.17s-7.5-15.92-17.05-30.25zm61.74 73.07c-1.64-13.34-5.79-26.03-5.79-26.03l84.8-29.5 3.25 13.62 15.15-5.06s5.27 20.19 7.39 36.97c2.77 21.96 2.56 41.92 2.56 41.91l-.14 68.09h-105.91l.03-67.98s.56-16.5-1.34-32.02z"/><path id="Normal 8" fill="none" stroke="#000" stroke-width="1" d="M1102.99 19l83.04-.01-.07-15.99s24.18.66 48.24 4.66c20.72 3.45 41.82 10.32 41.82 10.32l-2.94 8.97s-4.97-2.31-10.34-4.08c-5.16-1.7-11.89-2.87-11.89-2.87l-32.8 109.14s-14.03-3.04-28.05-4.07c-14.52-1.06-29.05-.1-29.05-.1l.06-24.97h-58.07zm243.05 51c-32.86-20.61-70.99-33.95-70.99-33.95l-33.95 116.09s20.68 6.06 38.9 17.86c18.71 12.12 34.98 30 34.98 30l12.06-10-3.51-3.53 5.95-6.05 5.53 5.69 18.01-16.11-7.01-6.96 12.01-12.01-2.01-1.98 5.91-5.91 2.07 1.88 5.75-5.02 8.24 9.11 11-11.13-1-1.01 6.98-5.87 6.1-5.1-4.53-4.65 5.66-5.53s-25.51-26.6-56.15-45.82z"/><path id="Normal 7" fill="none" stroke="#000" stroke-width="1" d="M940 18.98V109h78v31.99l19 .01V34.98l-10 .03.03-15.98h10.03L1037 3l-77.99-.01-.01 16zm124.06 105.98l38.86.07.08-106.02v-7.99l48.99-.01V3.02l-78-.04.06 32.02-10.06.01z"/><path id="Normal 6" fill="none" stroke="#000" stroke-width="1" d="M758.98 19l.02 73h97l.15-73h25.84l.01 72.98 9.92.02.09 16.96L940 109V18.98l-23.02.05.02-16.04L840 3v15.98z"/><path id="Normal 5" fill="none" stroke="#000" stroke-width="1" d="M578.55 19l-.04 90H627l-.02-17H637l.06-73 26.84.04.09 72.96h95.02s.06-73-.03-73h-79.97s-.06-16 0-16l-78.02.02.04 15.98z"/><path id="Normal 4" fill="none" stroke="#000" stroke-width="1" d="M416.01 19.01L416 125h39.01l.05-90.02-10.07-.04V19.08l.04-16.1-78 .08-.03 7.92 49.02.05zm66.08 121.94l18.88.08v-32.04l77.54.01.04-90-18.55.01V3.04h-78.01l.04 7.97 9.99.07-.04 24.01h-10.03z"/><path id="Normal 3" fill="none" stroke="#000" stroke-width="1" d="M239.38 170.65c-19.46 13.01-35.32 30.28-35.32 30.28L192.03 190l1.53-1.52-12.31-11.41-3.25 3.95L166.09 170l2.1-1.9-12.14-11.17-4.02 4.14L140.76 150l-5.75 6.15-17.09-18.27 2.99-2.85-12.01-11.24s28.14-32 61.1-53.79c34.09-22.54 73.03-34.9 73.03-34.9l34.1 116.98s-20.86 7.28-37.75 18.57zm17.94-148.3c-5.87 1.62-11.73 3.76-11.73 3.76l-2.84-7.31S259.1 12.74 280 9.09c24-4.19 52.99-6.03 52.99-6.03v16.02l83.01-.06.04 80.98h-59.1l.05 24.94s-16.46-.68-31.45.4c-13.42.98-25.54 3.73-25.54 3.73L270 27.94 267.87 20s-5.32.92-10.55 2.35z"/><path id="Normal 2" fill="none" stroke="#000" stroke-width="1" d="M13 400h138.99s-.07-3.05-.56-68.16c-.86-27.4 6.59-47.9 6.59-47.9L57.99 251.08l-35.99 3s-4.11 18.66-6.33 37.86c-2.24 19.36-2.6 39.27-2.6 39.27zm168.88-171.65c-9.5 14.42-15.93 30.55-15.93 30.55L50.39 218.3s10.38-27.16 24.69-50.27c14.94-24.13 33.83-44.24 33.83-44.24l12 11.24-3 2.87 17.12 18.27 5.75-6.17 11.24 11.09 4.02-4.15 12.14 11.18-2.11 1.88 11.95 11.02 3.26-3.96 12.26 11.41-1.53 1.53 12.07 10.95s-12.63 12.85-22.2 27.4z"/><path id="Normal 1" fill="none" stroke="#000" stroke-width="1" d="M116.03 657.34c14.59 21.99 32.97 39.73 32.97 39.73l-29 29.03S97.2 703.46 80 678c-16.28-24.1-27.02-51.09-27.02-51.09l38.95-15.82s10.17 25.28 24.1 46.25zm37.07-123.58c1.34 11.08 4.75 20.64 4.75 20.64l-82.57 34.19s-.06-.54-2.17-5.83c-16.17 5.36-.26.03-16.17 5.33-1.81-5.72-1.93-6.12-1.93-6.12L40 585.99 38.07 580l-14.96 5.06s-4.18-13.78-6.31-30.53c-2.8-22.05-3.75-48.55-3.75-48.55L13.01 400H152l.01 106.01s-.47 14.79 1.09 27.75z"/><path id="VIP-Disabled" fill="none" stroke="#000" stroke-width="1" d="M381.89 783l59.1.08v28.93h-59.02zm231.17.02l59.98.04-.06 28.87-59.96.08zm232.93.02l61.97-.03.03 28.96-62-.03zm231-.02l60.01.11-.04 28.84h-60z"/><path id="L-VIP" fill="none" stroke="#000" stroke-width="1" d="M273.56 812.08c34.29 8.24 68.5 5.94 68.5 5.94l-.04-91.08s-31.14.63-58.94-6.94c-27.15-7.4-50.98-23.01-50.98-23.01L200 746.96l4.88 3.04-8.89 13.12s1.95 1.74 4.01 3.08c2.46 1.6 5.12 2.84 5.12 2.84l-9.04 13.88s39.02 19.91 77.48 29.16zm-75.86-139c5.29 4.55 12.3 9.69 12.3 9.69l-33.25 49.62-3.41-2.39-8.24 13.13-10.87-8.12-9.82 12.57-22.26-20.03 65.33-64.16s4.28 4.59 10.22 9.69z"/><path id="VVIP" fill="none" stroke="#000" stroke-width="1" d="M490 785.98l73.04.06.1 13.07h-10.13l.01 16.8-53.02.07v-16.97h-10zm232.99.05l73.01-.04.04 13.05-9.99-.02L786 816l-52.98.03v-17.04l-10.05-.01zm232.04-.01h72.96l.03 13.98h-10l-.02 16-53.02-.02.04-15.98h-10.01z"/><g id="g1"><ellipse id="VIP-S-9" cx="1146.491" cy="733.273" rx="4.041" ry="4.082" fill="#00c820" fill-opacity="1" stroke-width=".987"/><ellipse id="VIP-S-94" cx="1136.1" cy="733.193" rx="4.041" ry="4.082" fill="#00c820" fill-opacity="1" stroke-width=".987"/><ellipse id="VIP-S-0" cx="1126.059" cy="733.331" rx="4.041" ry="4.082" fill="#00c820" fill-opacity="1" stroke-width=".987"/><ellipse id="VIP-S-888" cx="1001.802" cy="733.879" rx="4.078" ry="4.099" fill="#00c820" fill-opacity="1" stroke-width=".993"/><ellipse id="VIP-S-54" cx="991.405" cy="733.637" rx="4.078" ry="4.099" fill="#00c820" fill-opacity="1" stroke-width=".993"/><ellipse id="VIP-S-24" cx="980.774" cy="733.718" rx="4.078" ry="4.099" fill="#00c820" fill-opacity="1" stroke-width=".993"/><ellipse id="VIP-S-076" cx="970.201" cy="733.718" rx="4.078" ry="4.099" fill="#00c820" fill-opacity="1" stroke-width=".993"/><ellipse id="VIP-S-009" cx="959.993" cy="733.879" rx="4.078" ry="4.099" fill="#00c820" fill-opacity="1" stroke-width=".993"/><ellipse id="VIP-S-36" cx="949.231" cy="734.04" rx="4.078" ry="4.099" fill="#00c820" fill-opacity="1" stroke-width=".993"/><ellipse id="VIP-S-98" cx="939.212" cy="733.718" rx="4.078" ry="4.099" fill="#00c820" fill-opacity="1" stroke-width=".993"/><ellipse id="VIP-S-27" cx="928.501" cy="733.556" rx="4.078" ry="4.099" fill="#00c820" fill-opacity="1" stroke-width=".993"/><ellipse id="VIP-S-67" cx="918.373" cy="733.476" rx="4.078" ry="4.099" fill="#00c820" fill-opacity="1" stroke-width=".993"/><ellipse id="VIP-S-72" cx="907.553" cy="733.315" rx="4.078" ry="4.099" fill="#00c820" fill-opacity="1" stroke-width=".993"/><ellipse id="VIP-S-911" cx="897.381" cy="733.315" rx="4.078" ry="4.099" fill="#00c820" fill-opacity="1" stroke-width=".993"/><ellipse id="VIP-S-99" cx="852.73" cy="733.286" rx="4.078" ry="4.099" fill="#00c820" fill-opacity="1" stroke-width=".993"/><ellipse id="VIP-S-994" cx="842.34" cy="733.205" rx="4.078" ry="4.099" fill="#00c820" fill-opacity="1" stroke-width=".993"/><ellipse id="VIP-S-651" cx="832.19" cy="733.205" rx="4.078" ry="4.099" fill="#00c820" fill-opacity="1" stroke-width=".993"/><ellipse id="VIP-S-17" cx="821.341" cy="733.366" rx="4.078" ry="4.099" fill="#00c820" fill-opacity="1" stroke-width=".993"/><ellipse id="VIP-S-15" cx="811.191" cy="733.124" rx="4.078" ry="4.099" fill="#00c820" fill-opacity="1" stroke-width=".993"/><ellipse id="VIP-S-468" cx="800.64" cy="733.124" rx="4.078" ry="4.099" fill="#00c820" fill-opacity="1" stroke-width=".993"/><ellipse id="VIP-S-11" cx="853.32" cy="751.405" rx="4.078" ry="4.099" fill="#00c820" fill-opacity="1" stroke-width=".993"/><ellipse id="VIP-S-615" cx="842.5" cy="751.94" rx="4.078" ry="4.099" fill="#00c820" fill-opacity="1" stroke-width=".993"/><ellipse id="VIP-S-015" cx="832.11" cy="751.888" rx="4.078" ry="4.099" fill="#00c820" fill-opacity="1" stroke-width=".993"/><ellipse id="VIP-S-614" cx="821.902" cy="752.02" rx="4.078" ry="4.099" fill="#00c820" fill-opacity="1" stroke-width=".993"/><ellipse id="VIP-S-79" cx="811.489" cy="751.859" rx="4.078" ry="4.099" fill="#00c820" fill-opacity="1" stroke-width=".993"/><ellipse id="VIP-S-922" cx="800.588" cy="752.13" rx="4.078" ry="4.099" fill="#00c820" fill-opacity="1" stroke-width=".993"/><ellipse id="VIP-S-573" cx="790.06" cy="752.291" rx="4.078" ry="4.099" fill="#00c820" fill-opacity="1" stroke-width=".993"/><ellipse id="VIP-S-69" cx="779.567" cy="751.888" rx="4.078" ry="4.099" fill="#00c820" fill-opacity="1" stroke-width=".993"/><ellipse id="VIP-S-87" cx="769.382" cy="752.262" rx="4.078" ry="4.099" fill="#00c820" fill-opacity="1" stroke-width=".993"/><ellipse id="VIP-S-90" cx="758.59" cy="752.13" rx="4.078" ry="4.099" fill="#00c820" fill-opacity="1" stroke-width=".993"/><ellipse id="VIP-S-369" cx="749.322" cy="752.13" rx="4.078" ry="4.099" fill="#00c820" fill-opacity="1" stroke-width=".993"/><ellipse id="VIP-S-89" cx="738.771" cy="752.13" rx="4.078" ry="4.099" fill="#00c820" fill-opacity="1" stroke-width=".993"/><ellipse id="VIP-S-958" cx="727.39" cy="752.13" rx="4.078" ry="4.099" fill="#00c820" fill-opacity="1" stroke-width=".993"/><ellipse id="VIP-S-59" cx="716.73" cy="751.859" rx="4.078" ry="4.099" fill="#00c820" fill-opacity="1" stroke-width=".993"/><ellipse id="VIP-S-06" cx="717.48" cy="732.825" rx="4.078" ry="4.099" fill="#00c820" fill-opacity="1" stroke-width=".993"/><ellipse id="VIP-S-896" cx="706.689" cy="732.963" rx="4.078" ry="4.099" fill="#00c820" fill-opacity="1" stroke-width=".993"/><ellipse id="VIP-S-77" cx="696.561" cy="733.205" rx="4.078" ry="4.099" fill="#00c820" fill-opacity="1" stroke-width=".993"/><ellipse id="VIP-S-981" cx="686.28" cy="733.205" rx="4.078" ry="4.099" fill="#00c820" fill-opacity="1" stroke-width=".993"/><ellipse id="VIP-S-73" cx="675.591" cy="732.831" rx="4.078" ry="4.099" fill="#00c820" fill-opacity="1" stroke-width=".993"/><ellipse id="VIP-S-721" cx="665.31" cy="732.963" rx="4.078" ry="4.099" fill="#00c820" fill-opacity="1" stroke-width=".993"/><ellipse id="VIP-S-344" cx="664.8" cy="751.566" rx="4.078" ry="4.099" fill="#00c820" fill-opacity="1" stroke-width=".993"/><ellipse id="VIP-S-50" cx="674.979" cy="751.427" rx="4.078" ry="4.099" fill="#00c820" fill-opacity="1" stroke-width=".993"/><ellipse id="VIP-S-469" cx="686.068" cy="751.405" rx="4.078" ry="4.099" fill="#00c820" fill-opacity="1" stroke-width=".993"/><ellipse id="VIP-S-66" cx="696.292" cy="751.376" rx="4.078" ry="4.099" fill="#00c820" fill-opacity="1" stroke-width=".993"/><ellipse id="VIP-S-81" cx="706.529" cy="751.295" rx="4.078" ry="4.099" fill="#00c820" fill-opacity="1" stroke-width=".993"/><ellipse id="VIP-S-276" cx="664.668" cy="770.623" rx="4.078" ry="4.099" fill="#00c820" fill-opacity="1" stroke-width=".993"/><ellipse id="VIP-S-19" cx="675.46" cy="770.784" rx="4.078" ry="4.099" fill="#00c820" fill-opacity="1" stroke-width=".993"/><ellipse id="VIP-S-792" cx="685.77" cy="770.945" rx="4.078" ry="4.099" fill="#00c820" fill-opacity="1" stroke-width=".993"/><ellipse id="VIP-S-21" cx="696.298" cy="771.106" rx="4.078" ry="4.099" fill="#00c820" fill-opacity="1" stroke-width=".993"/><ellipse id="VIP-S-60" cx="706.872" cy="771.297" rx="4.078" ry="4.099" fill="#00c820" fill-opacity="1" stroke-width=".993"/><ellipse id="VIP-S-22" cx="717.509" cy="771.216" rx="4.078" ry="4.099" fill="#00c820" fill-opacity="1" stroke-width=".993"/><ellipse id="VIP-S-53" cx="727.711" cy="771.216" rx="4.078" ry="4.099" fill="#00c820" fill-opacity="1" stroke-width=".993"/><ellipse id="VIP-S-603" cx="738.101" cy="771.216" rx="4.078" ry="4.099" fill="#00c820" fill-opacity="1" stroke-width=".993"/><ellipse id="VIP-S-328" cx="748.928" cy="771.377" rx="4.078" ry="4.099" fill="#00c820" fill-opacity="1" stroke-width=".993"/><ellipse id="VIP-S-110" cx="693.159" cy="791.701" rx="4.078" ry="4.099" fill="#00c820" fill-opacity="1" stroke-width=".993"/><ellipse id="VIP-S-18" cx="681.995" cy="791.972" rx="4.078" ry="4.099" fill="#00c820" fill-opacity="1" stroke-width=".993"/><ellipse id="VIP-S-07" cx="1167.862" cy="751.905" rx="4.041" ry="4.082" fill="#00c820" fill-opacity="1" stroke-width=".987"/><ellipse id="VIP-S-95" cx="1136.771" cy="752.037" rx="4.041" ry="4.082" fill="#00c820" fill-opacity="1" stroke-width=".987"/><ellipse id="VIP-S-08" cx="1125.877" cy="751.985" rx="4.041" ry="4.082" fill="#00c820" fill-opacity="1" stroke-width=".987"/><ellipse id="VIP-S-45" cx="1167.701" cy="771.445" rx="4.041" ry="4.082" fill="#00c820" fill-opacity="1" stroke-width=".987"/><ellipse id="VIP-S-10" cx="1157.391" cy="771.877" rx="4.041" ry="4.082" fill="#00c820" fill-opacity="1" stroke-width=".987"/><ellipse id="VIP-S-09" cx="1146.863" cy="771.877" rx="4.041" ry="4.082" fill="#00c820" fill-opacity="1" stroke-width=".987"/><ellipse id="VIP-S-3" cx="1136.363" cy="772.119" rx="4.041" ry="4.082" fill="#00c820" fill-opacity="1" stroke-width=".987"/><ellipse id="VIP-S-8" cx="1126.03" cy="771.636" rx="4.041" ry="4.082" fill="#00c820" fill-opacity="1" stroke-width=".987"/><ellipse id="VIP-S-85" cx="1167.621" cy="791.424" rx="4.041" ry="4.082" fill="#00c820" fill-opacity="1" stroke-width=".987"/><ellipse id="VIP-S-02" cx="1156.888" cy="791.505" rx="4.041" ry="4.082" fill="#00c820" fill-opacity="1" stroke-width=".987"/><ellipse id="VIP-S-33" cx="1146.767" cy="791.666" rx="4.041" ry="4.082" fill="#00c820" fill-opacity="1" stroke-width=".987"/><ellipse id="VIP-S-41" cx="1066.894" cy="791.476" rx="4.041" ry="4.082" fill="#00c820" fill-opacity="1" stroke-width=".987"/><ellipse id="VIP-S-91" cx="1056.693" cy="791.556" rx="4.041" ry="4.082" fill="#00c820" fill-opacity="1" stroke-width=".987"/><ellipse id="VIP-S-82" cx="1086.043" cy="771.848" rx="4.041" ry="4.082" fill="#00c820" fill-opacity="1" stroke-width=".987"/><ellipse id="VIP-S-5" cx="1075.55" cy="771.745" rx="4.041" ry="4.082" fill="#00c820" fill-opacity="1" stroke-width=".987"/><ellipse id="VIP-S-96" cx="1064.694" cy="771.906" rx="4.041" ry="4.082" fill="#00c820" fill-opacity="1" stroke-width=".987"/><ellipse id="VIP-S-37" cx="1054.166" cy="771.877" rx="4.041" ry="4.082" fill="#00c820" fill-opacity="1" stroke-width=".987"/><ellipse id="VIP-S-459" cx="1043.782" cy="771.958" rx="4.041" ry="4.082" fill="#00c820" fill-opacity="1" stroke-width=".987"/><ellipse id="VIP-S-6" cx="1033.385" cy="771.906" rx="4.041" ry="4.082" fill="#00c820" fill-opacity="1" stroke-width=".987"/><ellipse id="VIP-S-61" cx="1022.766" cy="772.229" rx="4.041" ry="4.082" fill="#00c820" fill-opacity="1" stroke-width=".987"/><ellipse id="VIP-S-55" cx="1012.414" cy="772.39" rx="4.041" ry="4.082" fill="#00c820" fill-opacity="1" stroke-width=".987"/><ellipse id="VIP-S-912" cx="1001.854" cy="772.741" rx="4.041" ry="4.082" fill="#00c820" fill-opacity="1" stroke-width=".987"/><ellipse id="VIP-S-83" cx="991.13" cy="772.954" rx="4.041" ry="4.082" fill="#00c820" fill-opacity="1" stroke-width=".987"/><ellipse id="VIP-S-92" cx="980.775" cy="773.064" rx="4.041" ry="4.082" fill="#00c820" fill-opacity="1" stroke-width=".987"/><ellipse id="VIP-S-411" cx="970.381" cy="773.064" rx="4.041" ry="4.082" fill="#00c820" fill-opacity="1" stroke-width=".987"/><ellipse id="VIP-S-46" cx="960.09" cy="773.144" rx="4.041" ry="4.082" fill="#00c820" fill-opacity="1" stroke-width=".987"/><ellipse id="VIP-S-65" cx="949.533" cy="773.386" rx="4.041" ry="4.082" fill="#00c820" fill-opacity="1" stroke-width=".987"/><ellipse id="VIP-S-04" cx="938.449" cy="772.793" rx="4.041" ry="4.082" fill="#00c820" fill-opacity="1" stroke-width=".987"/><ellipse id="VIP-S-34" cx="925.509" cy="791.879" rx="4.041" ry="4.082" fill="#00c820" fill-opacity="1" stroke-width=".987"/><ellipse id="VIP-S-2" cx="914.74" cy="791.879" rx="4.041" ry="4.082" fill="#00c820" fill-opacity="1" stroke-width=".987"/><ellipse id="VIP-S-078" cx="928.591" cy="772.706" rx="4.041" ry="4.082" fill="#00c820" fill-opacity="1" stroke-width=".987"/><ellipse id="VIP-S-926" cx="917.954" cy="773.115" rx="4.041" ry="4.082" fill="#00c820" fill-opacity="1" stroke-width=".987"/><ellipse id="VIP-S-32" cx="907.403" cy="773.115" rx="4.041" ry="4.082" fill="#00c820" fill-opacity="1" stroke-width=".987"/><ellipse id="VIP-S-44" cx="896.801" cy="773.196" rx="4.041" ry="4.082" fill="#00c820" fill-opacity="1" stroke-width=".987"/><ellipse id="VIP-S-23" cx="897.121" cy="752.549" rx="4.041" ry="4.082" fill="#00c820" fill-opacity="1" stroke-width=".987"/><ellipse id="VIP-S-825" cx="907.271" cy="752.63" rx="4.041" ry="4.082" fill="#00c820" fill-opacity="1" stroke-width=".987"/><ellipse id="VIP-S-7" cx="918.011" cy="752.549" rx="4.041" ry="4.082" fill="#00c820" fill-opacity="1" stroke-width=".987"/><ellipse id="VIP-S-03" cx="928.533" cy="752.791" rx="4.041" ry="4.082" fill="#00c820" fill-opacity="1" stroke-width=".987"/><ellipse id="VIP-S-857" cx="991.502" cy="753.114" rx="4.041" ry="4.082" fill="#00c820" fill-opacity="1" stroke-width=".987"/><ellipse id="VIP-S-84" cx="1001.655" cy="753.194" rx="4.041" ry="4.082" fill="#00c820" fill-opacity="1" stroke-width=".987"/><ellipse id="VIP-S-58" cx="1012.334" cy="752.952" rx="4.041" ry="4.082" fill="#00c820" fill-opacity="1" stroke-width=".987"/><ellipse id="VIP-S-43" cx="1022.673" cy="752.791" rx="4.041" ry="4.082" fill="#00c820" fill-opacity="1" stroke-width=".987"/><ellipse id="VIP-S-63" cx="1033.253" cy="753.114" rx="4.041" ry="4.082" fill="#00c820" fill-opacity="1" stroke-width=".987"/><ellipse id="VIP-S-12" cx="1043.993" cy="752.923" rx="4.041" ry="4.082" fill="#00c820" fill-opacity="1" stroke-width=".987"/><ellipse id="VIP-S-126" cx="1054.384" cy="752.952" rx="4.041" ry="4.082" fill="#00c820" fill-opacity="1" stroke-width=".987"/><ellipse id="VIP-S-446" cx="1064.883" cy="752.872" rx="4.041" ry="4.082" fill="#00c820" fill-opacity="1" stroke-width=".987"/><ellipse id="VIP-S-832" cx="1075.383" cy="752.923" rx="4.041" ry="4.082" fill="#00c820" fill-opacity="1" stroke-width=".987"/><ellipse id="VIP-S-338" cx="1085.854" cy="752.952" rx="4.041" ry="4.082" fill="#00c820" fill-opacity="1" stroke-width=".987"/><ellipse id="VIP-S-86" cx="1085.533" cy="733.515" rx="4.041" ry="4.082" fill="#00c820" fill-opacity="1" stroke-width=".987"/><ellipse id="VIP-S-88" cx="1075.652" cy="733.625" rx="4.041" ry="4.082" fill="#00c820" fill-opacity="1" stroke-width=".987"/><ellipse id="VIP-S-47" cx="1064.964" cy="733.757" rx="4.041" ry="4.082" fill="#00c820" fill-opacity="1" stroke-width=".987"/><ellipse id="VIP-S-74" cx="1054.012" cy="733.866" rx="4.041" ry="4.082" fill="#00c820" fill-opacity="1" stroke-width=".987"/><ellipse id="VIP-S-49" cx="1043.833" cy="733.676" rx="4.041" ry="4.082" fill="#00c820" fill-opacity="1" stroke-width=".987"/><ellipse id="VIP-S-914" cx="1033.516" cy="733.866" rx="4.041" ry="4.082" fill="#00c820" fill-opacity="1" stroke-width=".987"/><ellipse id="VIP-S-57" cx="1022.943" cy="733.625" rx="4.041" ry="4.082" fill="#00c820" fill-opacity="1" stroke-width=".987"/><ellipse id="VIP-S-848" cx="1012.552" cy="733.705" rx="4.041" ry="4.082" fill="#00c820" fill-opacity="1" stroke-width=".987"/><ellipse id="VIP-S-00" cx="939.113" cy="752.711" rx="4.041" ry="4.082" fill="#00c820" fill-opacity="1" stroke-width=".987"/><ellipse id="VIP-S-01" cx="949.343" cy="752.952" rx="4.041" ry="4.082" fill="#00c820" fill-opacity="1" stroke-width=".987"/><ellipse id="VIP-S-039" cx="960.003" cy="753.355" rx="4.041" ry="4.082" fill="#00c820" fill-opacity="1" stroke-width=".987"/><ellipse id="VIP-S-063" cx="759.26" cy="771.245" rx="4.078" ry="4.099" fill="#00c820" fill-opacity="1" stroke-width=".993"/><ellipse id="VIP-S-16" cx="769.096" cy="771.135" rx="4.078" ry="4.099" fill="#00c820" fill-opacity="1" stroke-width=".993"/><ellipse id="VIP-S-842" cx="779.801" cy="771.245" rx="4.078" ry="4.099" fill="#00c820" fill-opacity="1" stroke-width=".993"/><ellipse id="VIP-S-913" cx="789.986" cy="771.268" rx="4.078" ry="4.099" fill="#00c820" fill-opacity="1" stroke-width=".993"/><ellipse id="VIP-S-989" cx="800.88" cy="771.377" rx="4.078" ry="4.099" fill="#00c820" fill-opacity="1" stroke-width=".993"/><ellipse id="VIP-S-247" cx="811.059" cy="771.135" rx="4.078" ry="4.099" fill="#00c820" fill-opacity="1" stroke-width=".993"/><ellipse id="VIP-S-942" cx="821.661" cy="771.245" rx="4.078" ry="4.099" fill="#00c820" fill-opacity="1" stroke-width=".993"/><ellipse id="VIP-S-13" cx="832.11" cy="771.187" rx="4.078" ry="4.099" fill="#00c820" fill-opacity="1" stroke-width=".993"/><ellipse id="VIP-S-9428" cx="842.58" cy="771.377" rx="4.078" ry="4.099" fill="#00c820" fill-opacity="1" stroke-width=".993"/><ellipse id="VIP-S-136" cx="852.971" cy="771.297" rx="4.078" ry="4.099" fill="#00c820" fill-opacity="1" stroke-width=".993"/><ellipse id="VIP-S-170" cx="824.663" cy="791.217" rx="4.078" ry="4.099" fill="#00c820" fill-opacity="1" stroke-width=".993"/><ellipse id="VIP-S-168" cx="835.563" cy="791.027" rx="4.078" ry="4.099" fill="#00c820" fill-opacity="1" stroke-width=".993"/><ellipse id="VIP-S-108" cx="602.468" cy="790.862" rx="4.078" ry="4.099" fill="#00c820" fill-opacity="1" stroke-width=".993"/><ellipse id="VIP-S-030" cx="591.937" cy="790.976" rx="4.078" ry="4.099" fill="#00c820" fill-opacity="1" stroke-width=".993"/><ellipse id="VIP-S-51" cx="970.423" cy="753.114" rx="4.041" ry="4.082" fill="#00c820" fill-opacity="1" stroke-width=".987"/><ellipse id="VIP-S-659" cx="980.573" cy="753.194" rx="4.041" ry="4.082" fill="#00c820" fill-opacity="1" stroke-width=".987"/><ellipse id="VIP-S-070" cx="1157.879" cy="751.824" rx="4.041" ry="4.082" fill="#00c820" fill-opacity="1" stroke-width=".987"/><ellipse id="VIP-S-132" cx="613.849" cy="771.442" rx="4.078" ry="4.099" transform="matrix(.99095 0 0 .99605 12.5 2.48)" fill="#00c820" fill-opacity="1" stroke-width=".993"/><ellipse id="VIP-S-430" cx="603.222" cy="771.442" rx="4.078" ry="4.099" transform="matrix(.99095 0 0 .99605 12.5 2.48)" fill="#00c820" fill-opacity="1" stroke-width=".993"/><ellipse id="VIP-S-38" cx="593.277" cy="771.671" rx="4.078" ry="4.099" transform="matrix(.99095 0 0 .99605 12.5 2.48)" fill="#00c820" fill-opacity="1" stroke-width=".993"/><ellipse id="VIP-S-40" cx="582.078" cy="772.099" rx="4.078" ry="4.099" transform="matrix(.99095 0 0 .99605 12.5 2.48)" fill="#00c820" fill-opacity="1" stroke-width=".993"/><ellipse id="VIP-S-436" cx="571.535" cy="771.328" rx="4.078" ry="4.099" transform="matrix(.99095 0 0 .99605 12.5 2.48)" fill="#00c820" fill-opacity="1" stroke-width=".993"/><ellipse id="VIP-S-68" cx="561.078" cy="771.584" rx="4.078" ry="4.099" transform="matrix(.99095 0 0 .99605 12.5 2.48)" fill="#00c820" fill-opacity="1" stroke-width=".993"/><ellipse id="VIP-S-76" cx="550.401" cy="771.665" rx="4.078" ry="4.099" transform="matrix(.99095 0 0 .99605 12.5 2.48)" fill="#00c820" fill-opacity="1" stroke-width=".993"/><ellipse id="VIP-S-513" cx="540.078" cy="771.584" rx="4.078" ry="4.099" transform="matrix(.99095 0 0 .99605 12.5 2.48)" fill="#00c820" fill-opacity="1" stroke-width=".993"/><ellipse id="VIP-S-163" cx="529.24" cy="771.665" rx="4.078" ry="4.099" transform="matrix(.99095 0 0 .99605 12.5 2.48)" fill="#00c820" fill-opacity="1" stroke-width=".993"/><ellipse id="VIP-S-35" cx="518.725" cy="771.503" rx="4.078" ry="4.099" transform="matrix(.99095 0 0 .99605 12.5 2.48)" fill="#00c820" fill-opacity="1" stroke-width=".993"/><ellipse id="VIP-S-910" cx="507.893" cy="771.422" rx="4.078" ry="4.099" transform="matrix(.99095 0 0 .99605 12.5 2.48)" fill="#00c820" fill-opacity="1" stroke-width=".993"/><ellipse id="VIP-S-135" cx="497.644" cy="771.503" rx="4.078" ry="4.099" transform="matrix(.99095 0 0 .99605 12.5 2.48)" fill="#00c820" fill-opacity="1" stroke-width=".993"/><ellipse id="VIP-S-42" cx="487.269" cy="771.613" rx="4.078" ry="4.099" transform="matrix(.99095 0 0 .99605 12.5 2.48)" fill="#00c820" fill-opacity="1" stroke-width=".993"/><ellipse id="VIP-S-26" cx="476.754" cy="771.371" rx="4.078" ry="4.099" transform="matrix(.99095 0 0 .99605 12.5 2.48)" fill="#00c820" fill-opacity="1" stroke-width=".993"/><ellipse id="VIP-S-352" cx="465.916" cy="771.341" rx="4.078" ry="4.099" transform="matrix(.99095 0 0 .99605 12.5 2.48)" fill="#00c820" fill-opacity="1" stroke-width=".993"/><ellipse id="VIP-S-508" cx="455.372" cy="771.503" rx="4.078" ry="4.099" transform="matrix(.99095 0 0 .99605 12.5 2.48)" fill="#00c820" fill-opacity="1" stroke-width=".993"/><ellipse id="VIP-S-25" cx="445.43" cy="771.584" rx="4.078" ry="4.099" transform="matrix(.99095 0 0 .99605 12.5 2.48)" fill="#00c820" fill-opacity="1" stroke-width=".993"/><ellipse id="VIP-S-1689" cx="434.725" cy="771.451" rx="4.078" ry="4.099" transform="matrix(.99095 0 0 .99605 12.5 2.48)" fill="#00c820" fill-opacity="1" stroke-width=".993"/><ellipse id="VIP-S-552" cx="424.159" cy="771.584" rx="4.078" ry="4.099" transform="matrix(.99095 0 0 .99605 12.5 2.48)" fill="#00c820" fill-opacity="1" stroke-width=".993"/><ellipse id="VIP-S-049" cx="442.188" cy="791.798" rx="4.078" ry="4.099" transform="matrix(.99095 0 0 .99605 12.5 2.48)" fill="#00c820" fill-opacity="1" stroke-width=".993"/><ellipse id="VIP-S-351" cx="453.57" cy="791.503" rx="4.078" ry="4.099" transform="matrix(.99095 0 0 .99605 12.5 2.48)" fill="#00c820" fill-opacity="1" stroke-width=".993"/><ellipse id="VIP-S-084" cx="423.673" cy="752.231" rx="4.078" ry="4.099" transform="matrix(.99095 0 0 .99605 12.5 2.48)" fill="#00c820" fill-opacity="1" stroke-width=".993"/><ellipse id="VIP-S-943" cx="434.188" cy="752.584" rx="4.078" ry="4.099" transform="matrix(.99095 0 0 .99605 12.5 2.48)" fill="#00c820" fill-opacity="1" stroke-width=".993"/><ellipse id="VIP-S-887" cx="444.68" cy="752.555" rx="4.078" ry="4.099" transform="matrix(.99095 0 0 .99605 12.5 2.48)" fill="#00c820" fill-opacity="1" stroke-width=".993"/><ellipse id="VIP-S-435" cx="455.188" cy="752.665" rx="4.078" ry="4.099" transform="matrix(.99095 0 0 .99605 12.5 2.48)" fill="#00c820" fill-opacity="1" stroke-width=".993"/><ellipse id="VIP-S-29" cx="465.916" cy="752.584" rx="4.078" ry="4.099" transform="matrix(.99095 0 0 .99605 12.5 2.48)" fill="#00c820" fill-opacity="1" stroke-width=".993"/><ellipse id="VIP-S-864" cx="476.563" cy="752.099" rx="4.078" ry="4.099" transform="matrix(.99095 0 0 .99605 12.5 2.48)" fill="#00c820" fill-opacity="1" stroke-width=".993"/><ellipse id="VIP-S-510" cx="487.291" cy="752.099" rx="4.078" ry="4.099" transform="matrix(.99095 0 0 .99605 12.5 2.48)" fill="#00c820" fill-opacity="1" stroke-width=".993"/><ellipse id="VIP-S-8876" cx="498.11" cy="752.503" rx="4.078" ry="4.099" transform="matrix(.99095 0 0 .99605 12.5 2.48)" fill="#00c820" fill-opacity="1" stroke-width=".993"/><ellipse id="VIP-S-903" cx="508.269" cy="752.393" rx="4.078" ry="4.099" transform="matrix(.99095 0 0 .99605 12.5 2.48)" fill="#00c820" fill-opacity="1" stroke-width=".993"/><ellipse id="VIP-S-127" cx="518.24" cy="752.474" rx="4.078" ry="4.099" transform="matrix(.99095 0 0 .99605 12.5 2.48)" fill="#00c820" fill-opacity="1" stroke-width=".993"/><ellipse id="VIP-S-677" cx="529.401" cy="752.422" rx="4.078" ry="4.099" transform="matrix(.99095 0 0 .99605 12.5 2.48)" fill="#00c820" fill-opacity="1" stroke-width=".993"/><ellipse id="VIP-S-05" cx="540.136" cy="752.584" rx="4.078" ry="4.099" transform="matrix(.99095 0 0 .99605 12.5 2.48)" fill="#00c820" fill-opacity="1" stroke-width=".993"/><ellipse id="VIP-S-78" cx="550.43" cy="752.746" rx="4.078" ry="4.099" transform="matrix(.99095 0 0 .99605 12.5 2.48)" fill="#00c820" fill-opacity="1" stroke-width=".993"/><ellipse id="VIP-S-434" cx="561.136" cy="752.746" rx="4.078" ry="4.099" transform="matrix(.99095 0 0 .99605 12.5 2.48)" fill="#00c820" fill-opacity="1" stroke-width=".993"/><ellipse id="VIP-S-683" cx="571.864" cy="752.746" rx="4.078" ry="4.099" transform="matrix(.99095 0 0 .99605 12.5 2.48)" fill="#00c820" fill-opacity="1" stroke-width=".993"/><ellipse id="VIP-S-62" cx="582.35" cy="752.584" rx="4.078" ry="4.099" transform="matrix(.99095 0 0 .99605 12.5 2.48)" fill="#00c820" fill-opacity="1" stroke-width=".993"/><ellipse id="VIP-S-30" cx="592.725" cy="752.584" rx="4.078" ry="4.099" transform="matrix(.99095 0 0 .99605 12.5 2.48)" fill="#00c820" fill-opacity="1" stroke-width=".993"/><ellipse id="VIP-S-173" cx="603.24" cy="752.584" rx="4.078" ry="4.099" transform="matrix(.99095 0 0 .99605 12.5 2.48)" fill="#00c820" fill-opacity="1" stroke-width=".993"/><ellipse id="VIP-S-235" cx="613.945" cy="752.665" rx="4.078" ry="4.099" transform="matrix(.99095 0 0 .99605 12.5 2.48)" fill="#00c820" fill-opacity="1" stroke-width=".993"/><ellipse id="VIP-S-195" cx="614.159" cy="734.879" rx="4.078" ry="4.099" transform="matrix(.99095 0 0 .99605 12.5 2.48)" fill="#00c820" fill-opacity="1" stroke-width=".993"/><ellipse id="VIP-S-376" cx="603.24" cy="735.15" rx="4.078" ry="4.099" transform="matrix(.99095 0 0 .99605 12.5 2.48)" fill="#00c820" fill-opacity="1" stroke-width=".993"/><ellipse id="VIP-S-103" cx="592.997" cy="735.07" rx="4.078" ry="4.099" transform="matrix(.99095 0 0 .99605 12.5 2.48)" fill="#00c820" fill-opacity="1" stroke-width=".993"/><ellipse id="VIP-S-5524" cx="582.621" cy="735.18" rx="4.078" ry="4.099" transform="matrix(.99095 0 0 .99605 12.5 2.48)" fill="#00c820" fill-opacity="1" stroke-width=".993"/><ellipse id="VIP-S-956" cx="571.812" cy="735.099" rx="4.078" ry="4.099" transform="matrix(.99095 0 0 .99605 12.5 2.48)" fill="#00c820" fill-opacity="1" stroke-width=".993"/><ellipse id="VIP-S-477" cx="561.43" cy="735.099" rx="4.078" ry="4.099" transform="matrix(.99095 0 0 .99605 12.5 2.48)" fill="#00c820" fill-opacity="1" stroke-width=".993"/><ellipse id="VIP-S-130" cx="550.57" cy="735.18" rx="4.078" ry="4.099" transform="matrix(.99095 0 0 .99605 12.5 2.48)" fill="#00c820" fill-opacity="1" stroke-width=".993"/><ellipse id="VIP-S-676" cx="539.783" cy="735.099" rx="4.078" ry="4.099" transform="matrix(.99095 0 0 .99605 12.5 2.48)" fill="#00c820" fill-opacity="1" stroke-width=".993"/><ellipse id="VIP-S-576" cx="529.534" cy="735.099" rx="4.078" ry="4.099" transform="matrix(.99095 0 0 .99605 12.5 2.48)" fill="#00c820" fill-opacity="1" stroke-width=".993"/><ellipse id="VIP-S-39" cx="519.049" cy="735.393" rx="4.078" ry="4.099" transform="matrix(.99095 0 0 .99605 12.5 2.48)" fill="#00c820" fill-opacity="1" stroke-width=".993"/><ellipse id="VIP-S-0395" cx="508.24" cy="735.26" rx="4.078" ry="4.099" transform="matrix(.99095 0 0 .99605 12.5 2.48)" fill="#00c820" fill-opacity="1" stroke-width=".993"/><ellipse id="VIP-S-5105" cx="497.806" cy="735.18" rx="4.078" ry="4.099" transform="matrix(.99095 0 0 .99605 12.5 2.48)" fill="#00c820" fill-opacity="1" stroke-width=".993"/><ellipse id="VIP-S-962" cx="487.049" cy="735.18" rx="4.078" ry="4.099" transform="matrix(.99095 0 0 .99605 12.5 2.48)" fill="#00c820" fill-opacity="1" stroke-width=".993"/><ellipse id="VIP-S-516" cx="476.246" cy="735.18" rx="4.078" ry="4.099" transform="matrix(.99095 0 0 .99605 12.5 2.48)" fill="#00c820" fill-opacity="1" stroke-width=".993"/><ellipse id="VIP-S-034" cx="466.026" cy="735.26" rx="4.078" ry="4.099" transform="matrix(.99095 0 0 .99605 12.5 2.48)" fill="#00c820" fill-opacity="1" stroke-width=".993"/><ellipse id="VIP-S-020" cx="455.541" cy="735.26" rx="4.078" ry="4.099" transform="matrix(.99095 0 0 .99605 12.5 2.48)" fill="#00c820" fill-opacity="1" stroke-width=".993"/><ellipse id="VIP-S-623" cx="444.835" cy="735.099" rx="4.078" ry="4.099" transform="matrix(.99095 0 0 .99605 12.5 2.48)" fill="#00c820" fill-opacity="1" stroke-width=".993"/><ellipse id="VIP-S-116" cx="434.246" cy="735.018" rx="4.078" ry="4.099" transform="matrix(.99095 0 0 .99605 12.5 2.48)" fill="#00c820" fill-opacity="1" stroke-width=".993"/><ellipse id="VIP-S-466" cx="423.974" cy="735.18" rx="4.078" ry="4.099" transform="matrix(.99095 0 0 .99605 12.5 2.48)" fill="#00c820" fill-opacity="1" stroke-width=".993"/><ellipse id="VIP-S-060" cx="383.159" cy="735.18" rx="4.078" ry="4.099" transform="matrix(.99095 0 0 .99605 12.5 2.48)" fill="#00c820" fill-opacity="1" stroke-width=".993"/><ellipse id="VIP-S-726" cx="372.592" cy="735.341" rx="4.078" ry="4.099" transform="matrix(.99095 0 0 .99605 12.5 2.48)" fill="#00c820" fill-opacity="1" stroke-width=".993"/><ellipse id="VIP-S-518" cx="361.916" cy="735.26" rx="4.078" ry="4.099" transform="matrix(.99095 0 0 .99605 12.5 2.48)" fill="#00c820" fill-opacity="1" stroke-width=".993"/><ellipse id="VIP-S-737" cx="351.482" cy="735.422" rx="4.078" ry="4.099" transform="matrix(.99095 0 0 .99605 12.5 2.48)" fill="#00c820" fill-opacity="1" stroke-width=".993"/><ellipse id="VIP-S-306" cx="340.922" cy="735.26" rx="4.078" ry="4.099" transform="matrix(.99095 0 0 .99605 12.5 2.48)" fill="#00c820" fill-opacity="1" stroke-width=".993"/><ellipse id="VIP-S-682" cx="340.835" cy="752.561" rx="4.078" ry="4.099" transform="matrix(.99095 0 0 .99605 12.5 2.48)" fill="#00c820" fill-opacity="1" stroke-width=".993"/><ellipse id="VIP-S-923" cx="351.57" cy="752.474" rx="4.078" ry="4.099" transform="matrix(.99095 0 0 .99605 12.5 2.48)" fill="#00c820" fill-opacity="1" stroke-width=".993"/><ellipse id="VIP-S-384" cx="362.217" cy="752.422" rx="4.078" ry="4.099" transform="matrix(.99095 0 0 .99605 12.5 2.48)" fill="#00c820" fill-opacity="1" stroke-width=".993"/><ellipse id="VIP-S-321" cx="372.35" cy="752.422" rx="4.078" ry="4.099" transform="matrix(.99095 0 0 .99605 12.5 2.48)" fill="#00c820" fill-opacity="1" stroke-width=".993"/><ellipse id="VIP-S-150" cx="383.049" cy="752.422" rx="4.078" ry="4.099" transform="matrix(.99095 0 0 .99605 12.5 2.48)" fill="#00c820" fill-opacity="1" stroke-width=".993"/><ellipse id="VIP-S-326" cx="382.916" cy="771.445" rx="4.078" ry="4.099" transform="matrix(.99095 0 0 .99605 12.5 2.48)" fill="#00c820" fill-opacity="1" stroke-width=".993"/><ellipse id="VIP-S-691" cx="372.43" cy="771.827" rx="4.078" ry="4.099" transform="matrix(.99095 0 0 .99605 12.5 2.48)" fill="#00c820" fill-opacity="1" stroke-width=".993"/><ellipse id="VIP-S-001" cx="362.003" cy="771.665" rx="4.078" ry="4.099" transform="matrix(.99095 0 0 .99605 12.5 2.48)" fill="#00c820" fill-opacity="1" stroke-width=".993"/><ellipse id="VIP-S-621" cx="351.43" cy="771.532" rx="4.078" ry="4.099" transform="matrix(.99095 0 0 .99605 12.5 2.48)" fill="#00c820" fill-opacity="1" stroke-width=".993"/><ellipse id="VIP-S-799" cx="340.644" cy="770.856" rx="4.078" ry="4.099" transform="matrix(.99095 0 0 .99605 12.5 2.48)" fill="#00c820" fill-opacity="1" stroke-width=".993"/><ellipse id="VIP-S-899" cx="340.511" cy="791.607" rx="4.078" ry="4.099" transform="matrix(.99095 0 0 .99605 12.5 2.48)" fill="#00c820" fill-opacity="1" stroke-width=".993"/><ellipse id="VIP-S-28" cx="351.489" cy="791.694" rx="4.078" ry="4.099" transform="matrix(.99095 0 0 .99605 12.5 2.48)" fill="#00c820" fill-opacity="1" stroke-width=".993"/><ellipse id="VIP-S-511" cx="362.702" cy="791.746" rx="4.078" ry="4.099" transform="matrix(.99095 0 0 .99605 12.5 2.48)" fill="#00c820" fill-opacity="1" stroke-width=".993"/><ellipse id="VIP-S-1" cx="1147.373" cy="751.905" rx="4.041" ry="4.082" fill="#00c820" fill-opacity="1" stroke-width=".987"/><ellipse id="VIP-S" cx="1168.154" cy="732.768" rx="4.041" ry="4.082" fill="#00c820" fill-opacity="1" stroke-width=".987"/><ellipse id="VIP-S-4" cx="1157.305" cy="733.164" rx="4.041" ry="4.082" fill="#00c820" fill-opacity="1" stroke-width=".987"/><path id="VIP" fill="none" stroke="#000" stroke-width="1" d="M344.93 800h33.99v-20h19.07l.17-52.96-53.29-.06zM428 727l-.03 53h18.02l-.03 19.01h22.05l-.03-19.01h119.04v19l22.04-.04-.04-18.96h17.94l.06-52.95zm232 .02V780h17.01l.03 19H699l-.03-19h120.1l-.03 18.97 23.9.06.14-19.03h15.87l.03-52.97-64.06.03.06 18.94-70.95-.03-.09-18.97zm231.95 0l-.01 52.98H910v19h21.98l-.04-19h120l.11 19.01 21.94-.03.02-18.98h18l.01-53.01zm229.04-.01l.02 52.99h20.95l.07 19.01h30.96l-.06-72.02z"/></g><g id="g5" transform="matrix(.99095 0 0 .99605 11.039 2.062)"><circle id="R-VIP-S-1" cx="1181.466" cy="732.747" r="4.115" fill="#00c820" fill-opacity="1"/><circle id="R-VIP-S-6" cx="1191.349" cy="732.541" r="4.115" fill="#00c820" fill-opacity="1"/><circle id="R-VIP-S-8" cx="1201.263" cy="731.732" r="4.115" fill="#00c820" fill-opacity="1"/><circle id="R-VIP-S-80" cx="1211.34" cy="730.742" r="4.115" fill="#00c820" fill-opacity="1"/><circle id="R-VIP-S-9" cx="1221.421" cy="729.254" r="4.115" fill="#00c820" fill-opacity="1"/><circle id="R-VIP-S-4" cx="1231.091" cy="727.541" r="4.115" fill="#00c820" fill-opacity="1"/><circle id="R-VIP-S-94" cx="1241.062" cy="724.914" r="4.115" fill="#00c820" fill-opacity="1"/><circle id="R-VIP-S-2" cx="1250.642" cy="721.478" r="4.115" fill="#00c820" fill-opacity="1"/><circle id="R-VIP-S-86" cx="1260.01" cy="718.766" r="4.115" fill="#00c820" fill-opacity="1"/><circle id="R-VIP-S-26" cx="1268.742" cy="714.574" r="4.115" fill="#00c820" fill-opacity="1"/><circle id="R-VIP-S-66" cx="1277.306" cy="710.139" r="4.115" fill="#00c820" fill-opacity="1"/><circle id="R-VIP-S-109" cx="1285.627" cy="705.225" r="4.115" fill="#00c820" fill-opacity="1"/><circle id="R-VIP-S-47" cx="1314.938" cy="685.785" r="4.115" fill="#00c820" fill-opacity="1"/><circle id="R-VIP-S-21" cx="1322.469" cy="679.521" r="4.115" fill="#00c820" fill-opacity="1"/><circle id="R-VIP-S-15" cx="1330.398" cy="672.885" r="4.115" fill="#00c820" fill-opacity="1"/><circle id="R-VIP-S-68" cx="1337.962" cy="666.182" r="4.115" fill="#00c820" fill-opacity="1"/><circle id="R-VIP-S-3" cx="1348.484" cy="678.273" r="4.115" fill="#00c820" fill-opacity="1"/><circle id="R-VIP-S-0" cx="1341.34" cy="685.091" r="4.115" fill="#00c820" fill-opacity="1"/><circle id="R-VIP-S-5" cx="1333.555" cy="691.952" r="4.115" fill="#00c820" fill-opacity="1"/><circle id="R-VIP-S-52" cx="1325.651" cy="698.206" r="4.115" fill="#00c820" fill-opacity="1"/><circle id="R-VIP-S-521" cx="1294.957" cy="718.842" r="4.115" fill="#00c820" fill-opacity="1"/><circle id="R-VIP-S-160" cx="1334.689" cy="711.019" r="4.115" fill="#00c820" fill-opacity="1"/><circle id="R-VIP-S-528" cx="1343.158" cy="704.488" r="4.115" fill="#00c820" fill-opacity="1"/><circle id="R-VIP-S-037" cx="1350.804" cy="697.99" r="4.115" fill="#00c820" fill-opacity="1"/><circle id="R-VIP-S-07" cx="1358.115" cy="690.957" r="4.115" fill="#00c820" fill-opacity="1"/><circle id="R-VIP-S-942" cx="1372.153" cy="699.742" r="4.115" fill="#00c820" fill-opacity="1"/><circle id="R-VIP-S-19" cx="1365.704" cy="706.421" r="4.115" fill="#00c820" fill-opacity="1"/><circle id="R-VIP-S-976" cx="1358.68" cy="712.656" r="4.115" fill="#00c820" fill-opacity="1"/><circle id="R-VIP-S-96" cx="1351.168" cy="719.55" r="4.115" fill="#00c820" fill-opacity="1"/><circle id="R-VIP-S-00" cx="1343.967" cy="725.115" r="4.115" fill="#00c820" fill-opacity="1"/><circle id="R-VIP-S-746" cx="1313.349" cy="745.636" r="4.115" fill="#00c820" fill-opacity="1"/><circle id="R-VIP-S-54" cx="1305.306" cy="750.359" r="4.115" fill="#00c820" fill-opacity="1"/><circle id="R-VIP-S-90" cx="1296.512" cy="755.082" r="4.115" fill="#00c820" fill-opacity="1"/><circle id="R-VIP-S-35" cx="1287.043" cy="759.794" r="4.115" fill="#00c820" fill-opacity="1"/><circle id="R-VIP-S-351" cx="1278.024" cy="763.56" r="4.115" fill="#00c820" fill-opacity="1"/><circle id="R-VIP-S-009" cx="1269.277" cy="767.168" r="4.115" fill="#00c820" fill-opacity="1"/><circle id="R-VIP-S-11" cx="1259.866" cy="770.082" r="4.115" fill="#00c820" fill-opacity="1"/><circle id="R-VIP-S-79" cx="1249.842" cy="773.22" r="4.115" fill="#00c820" fill-opacity="1"/><circle id="R-VIP-S-972" cx="1240.842" cy="776.029" r="4.115" fill="#00c820" fill-opacity="1"/><circle id="R-VIP-S-729" cx="1231.268" cy="777.88" r="4.115" fill="#00c820" fill-opacity="1"/><circle id="R-VIP-S-37" cx="1221.1" cy="780.125" r="4.115" fill="#00c820" fill-opacity="1"/><circle id="R-VIP-S-23" cx="1211.163" cy="781.359" r="4.115" fill="#00c820" fill-opacity="1"/><circle id="R-VIP-S-32" cx="1201.067" cy="782.402" r="4.115" fill="#00c820" fill-opacity="1"/><circle id="R-VIP-S-979" cx="1191.45" cy="783.211" r="4.115" fill="#00c820" fill-opacity="1"/><circle id="R-VIP-S-24" cx="1181.641" cy="783.254" r="4.115" fill="#00c820" fill-opacity="1"/><circle id="R-VIP-S-211" cx="1181.392" cy="797.967" r="4.115" fill="#00c820" fill-opacity="1"/><circle id="R-VIP-S-967" cx="1191.115" cy="797.689" r="4.115" fill="#00c820" fill-opacity="1"/><circle id="R-VIP-S-61" cx="1201.56" cy="797.445" r="4.115" fill="#00c820" fill-opacity="1"/><circle id="R-VIP-S-838" cx="1211.761" cy="796.211" r="4.115" fill="#00c820" fill-opacity="1"/><circle id="R-VIP-S-57" cx="1221.335" cy="794.775" r="4.115" fill="#00c820" fill-opacity="1"/><circle id="R-VIP-S-408" cx="1231.445" cy="793.072" r="4.115" fill="#00c820" fill-opacity="1"/><circle id="R-VIP-S-229" cx="1241.541" cy="791.402" r="4.115" fill="#00c820" fill-opacity="1"/><circle id="R-VIP-S-13" cx="1251.115" cy="789.115" r="4.115" fill="#00c820" fill-opacity="1"/><circle id="R-VIP-S-85" cx="1261.148" cy="786.115" r="4.115" fill="#00c820" fill-opacity="1"/><circle id="R-VIP-S-007" cx="1270.603" cy="782.967" r="4.115" fill="#00c820" fill-opacity="1"/><circle id="R-VIP-S-554" cx="1280.048" cy="779.531" r="4.115" fill="#00c820" fill-opacity="1"/><circle id="R-VIP-S-51" cx="1288.881" cy="775.541" r="4.115" fill="#00c820" fill-opacity="1"/><circle id="R-VIP-S-110" cx="1298.637" cy="771.498" r="4.115" fill="#00c820" fill-opacity="1"/><circle id="R-VIP-S-93" cx="1307.603" cy="767.062" r="4.115" fill="#00c820" fill-opacity="1"/><circle id="R-VIP-S-12" cx="1316.039" cy="762.435" r="4.115" fill="#00c820" fill-opacity="1"/><circle id="R-VIP-S-599" cx="1352.68" cy="737.402" r="4.115" fill="#00c820" fill-opacity="1"/><circle id="R-VIP-S-76" cx="1361.402" cy="730.871" r="4.115" fill="#00c820" fill-opacity="1"/><circle id="R-VIP-S-39" cx="1369.445" cy="724.679" r="4.115" fill="#00c820" fill-opacity="1"/><circle id="R-VIP-S-790" cx="1377.306" cy="718.158" r="4.115" fill="#00c820" fill-opacity="1"/><circle id="R-VIP-S-05" cx="1384.55" cy="710.775" r="4.115" fill="#00c820" fill-opacity="1"/><circle id="R-VIP-S-69" cx="1394.828" cy="723.349" r="4.115" fill="#00c820" fill-opacity="1"/><circle id="R-VIP-S-578" cx="1387.019" cy="731.019" r="4.115" fill="#00c820" fill-opacity="1"/><circle id="R-VIP-S-17" cx="1379.115" cy="737.115" r="4.115" fill="#00c820" fill-opacity="1"/><circle id="R-VIP-S-45" cx="1371.498" cy="743.636" r="4.115" fill="#00c820" fill-opacity="1"/><circle id="R-VIP-S-866" cx="1315.115" cy="781.115" r="4.115" fill="#00c820" fill-opacity="1"/><circle id="R-VIP-S-794" cx="1306.115" cy="785.445" r="4.115" fill="#00c820" fill-opacity="1"/><circle id="R-VIP-S-88" cx="1297.211" cy="789.828" r="4.115" fill="#00c820" fill-opacity="1"/><circle id="R-VIP-S-92" cx="1288.115" cy="793.115" r="4.115" fill="#00c820" fill-opacity="1"/><circle id="R-VIP-S-46" cx="1278.349" cy="797.019" r="4.115" fill="#00c820" fill-opacity="1"/><circle id="R-VIP-S-964" cx="1269.211" cy="800.402" r="4.115" fill="#00c820" fill-opacity="1"/><circle id="R-VIP-S-024" cx="1259.732" cy="803.211" r="4.115" fill="#00c820" fill-opacity="1"/><circle id="R-VIP-S-91" cx="1250.062" cy="805.392" r="4.115" fill="#00c820" fill-opacity="1"/><circle id="R-VIP-S-930" cx="1240.254" cy="807.541" r="4.115" fill="#00c820" fill-opacity="1"/><circle id="R-VIP-S-01" cx="1230.924" cy="809.158" r="4.115" fill="#00c820" fill-opacity="1"/><circle id="R-VIP-S-023" cx="1221.168" cy="810.732" r="4.115" fill="#00c820" fill-opacity="1"/><circle id="R-VIP-S-944" cx="1211.349" cy="811.924" r="4.115" fill="#00c820" fill-opacity="1"/><circle id="R-VIP-S-48" cx="1201.507" cy="812.914" r="4.115" fill="#00c820" fill-opacity="1"/><circle id="R-VIP-S-634" cx="1191.68" cy="813.924" r="4.115" fill="#00c820" fill-opacity="1"/><circle id="R-VIP-S-212" cx="1181.349" cy="813.636" r="4.115" fill="#00c820" fill-opacity="1"/><circle id="R-VIP-S-16" cx="1286.986" cy="722.689" r="4.115" fill="#00c820" fill-opacity="1"/><circle id="R-VIP-S-83" cx="1277.785" cy="727.019" r="4.115" fill="#00c820" fill-opacity="1"/><circle id="R-VIP-S-55" cx="1268.732" cy="730.967" r="4.115" fill="#00c820" fill-opacity="1"/><circle id="R-VIP-S-84" cx="1259.484" cy="734.818" r="4.115" fill="#00c820" fill-opacity="1"/><circle id="R-VIP-S-33" cx="1250.22" cy="737.88" r="4.115" fill="#00c820" fill-opacity="1"/><circle id="R-VIP-S-59" cx="1240.742" cy="741.125" r="4.115" fill="#00c820" fill-opacity="1"/><circle id="R-VIP-S-56" cx="1230.804" cy="743.742" r="4.115" fill="#00c820" fill-opacity="1"/><circle id="R-VIP-S-22" cx="1221.024" cy="745.498" r="4.115" fill="#00c820" fill-opacity="1"/><circle id="R-VIP-S-269" cx="1211.211" cy="747.306" r="4.115" fill="#00c820" fill-opacity="1"/><circle id="R-VIP-S-7" cx="1201.55" cy="748.541" r="4.115" fill="#00c820" fill-opacity="1"/><circle id="R-VIP-S-36" cx="1191.584" cy="749.55" r="4.115" fill="#00c820" fill-opacity="1"/><circle id="R-VIP-S-471" cx="1181.254" cy="749.785" r="4.115" fill="#00c820" fill-opacity="1"/><circle id="R-VIP-S-72" cx="1181.297" cy="765.498" r="4.115" fill="#00c820" fill-opacity="1"/><circle id="R-VIP-S-50" cx="1191.541" cy="765.297" r="4.115" fill="#00c820" fill-opacity="1"/><circle id="R-VIP-S-97" cx="1201.498" cy="764.689" r="4.115" fill="#00c820" fill-opacity="1"/><circle id="R-VIP-S-74" cx="1211.211" cy="763.392" r="4.115" fill="#00c820" fill-opacity="1"/><circle id="R-VIP-S-40" cx="1221.503" cy="761.636" r="4.115" fill="#00c820" fill-opacity="1"/><circle id="R-VIP-S-158" cx="1231.421" cy="759.775" r="4.115" fill="#00c820" fill-opacity="1"/><circle id="R-VIP-S-680" cx="1241.005" cy="757.775" r="4.115" fill="#00c820" fill-opacity="1"/><circle id="R-VIP-S-228" cx="1250.287" cy="755.201" r="4.115" fill="#00c820" fill-opacity="1"/><circle id="R-VIP-S-67" cx="1260.091" cy="751.713" r="4.115" fill="#00c820" fill-opacity="1"/><circle id="R-VIP-S-03" cx="1269.23" cy="748.244" r="4.115" fill="#00c820" fill-opacity="1"/><circle id="R-VIP-S-63" cx="1278.436" cy="744.794" r="4.115" fill="#00c820" fill-opacity="1"/><circle id="R-VIP-S-02" cx="1287.498" cy="740.679" r="4.115" fill="#00c820" fill-opacity="1"/><circle id="R-VIP-S-030" cx="1296.101" cy="736.818" r="4.115" fill="#00c820" fill-opacity="1"/><circle id="R-VIP-S-09" cx="1304.263" cy="731.957" r="4.115" fill="#00c820" fill-opacity="1"/><path id="R-VIP" fill="none" stroke="#000" stroke-width="1" d="M1237.84 720c-27.79 7.65-60.86 7.01-60.86 7.01l-.03 92.04s49.84-.79 85.52-11.57c34.09-8.54 58.7-24.52 58.69-24.52-.03 0-8.38-12.96-8.38-12.96l10.52-6.45-8.92-13.55 5.62-2.97-34.01-50.03s-21.46 15.65-48.15 23zm70.06-36.81s7.19-5.01 13.96-10.99c7.39-6.51 14.4-14.04 14.4-14.04l65.85 64.72s-7 7.13-14.51 13.79c-8.49 7.53-17.6 14.7-17.6 14.7l-10-13.52-9.1 6.58z" transform="matrix(1.00913 0 0 1.00397 -11.14 -2.07)"/></g></g></svg>