<svg xmlns="http://www.w3.org/2000/svg" xml:space="preserve" id="svg1" version="1.1" viewBox="0 0 1495.313 817.387"><g id="SECTORS" transform="matrix(1.00145 0 0 1.00038 -12.518 -2.48)"><path id="Disabled" fill="none" stroke="#000" stroke-width="1" d="m947.99 702.15.23-26.26 218.29.11s29.3 1.06 55.34-6c23.59-6.4 44.16-20.99 44.16-20.99l15.12 23.2s-22.63 18.56-48.25 25.45c-31.13 8.37-66.34 5.37-66.34 5.37zM1370 544.04c-2.83 14.31-10 28.34-10 28.34l-25.3-9.14s5.91-12.45 8.18-24.91c2.82-15.55 2.13-31.81 2.13-31.81l-.51-183.48 28.5-.03.02 183.46s.57 19.4-3.02 37.57z"/><path id="Normal 10" fill="none" stroke="#000" stroke-width="1" d="m1399.02 400 .06 106.14s.41 19.06-1.58 35.51c-1.49 12.4-5.51 23.35-5.51 23.35l69.17 24.13 1.91-6.85 14.93 4.13 2-6.41 16.02 5.36s4.58-17.1 6.68-35.36c2.44-21.2 2.45-43.99 2.45-43.99l-.19-106.01zm43.44 270c15.23-24.04 25.54-50.96 25.54-50.96l-84.86-26.95-19.84 35.39s13.68 8.72 13.95 9.05c.13.09-2.02 3.47-2.13 3.47.11 0 13.1 10 13.1 10s-5.87 8.4-12.6 16.66c-5.84 7.16-12.66 14.33-12.66 14.33l40.19 40.44s22.22-24.45 39.31-51.43z"/><path id="Normal 9" fill="none" stroke="#000" stroke-width="1" d="M1336 226.93c-9.5-14.26-21.04-26.93-21.04-26.93l12.07-10-3.48-3.54 5.94-6.05 5.52 5.67 18.03-16.08-7.05-6.98 12-12-1.98-1.96 5.91-5.92 2.07 1.87 5.75-5.01 8.24 9.12 10.98-11.14-1-1.01 13.1-10.98-4.53-4.67 5.67-5.48s22.78 23.71 40.02 50.83c15.08 23.74 24.91 51.34 24.91 51.34l-114.08 39.17s-7.5-15.92-17.05-30.25zm61.74 73.07c-1.64-13.34-5.79-26.03-5.79-26.03l84.8-29.5 3.25 13.62 15.15-5.06s5.27 20.19 7.39 36.97c2.77 21.96 2.56 41.92 2.56 41.91l-.14 68.09h-105.91l.03-67.98s.56-16.5-1.34-32.02z"/><path id="Normal 8" fill="none" stroke="#000" stroke-width="1" d="m1102.99 19 83.04-.01-.07-15.99s24.18.66 48.24 4.66c20.72 3.45 41.82 10.32 41.82 10.32l-2.94 8.97s-4.97-2.31-10.34-4.08c-5.16-1.7-11.89-2.87-11.89-2.87l-32.8 109.14s-14.03-3.04-28.05-4.07c-14.52-1.06-29.05-.1-29.05-.1l.06-24.97h-58.07zm243.05 51c-32.86-20.61-70.99-33.95-70.99-33.95l-33.95 116.09s20.68 6.06 38.9 17.86c18.71 12.12 34.98 30 34.98 30l12.06-10-3.51-3.53 5.95-6.05 5.53 5.69 18.01-16.11-7.01-6.96 12.01-12.01-2.01-1.98 5.91-5.91 2.07 1.88 5.75-5.02 8.24 9.11 11-11.13-1-1.01 6.98-5.87 6.1-5.1-4.53-4.65 5.66-5.53s-25.51-26.6-56.15-45.82z"/><path id="Normal 7" fill="none" stroke="#000" stroke-width="1" d="M940 18.98V109h78v31.99l19 .01V34.98l-10 .03.03-15.98h10.03L1037 3l-77.99-.01-.01 16zm124.06 105.98 38.86.07.08-106.02v-7.99l48.99-.01V3.02l-78-.04.06 32.02-10.06.01z"/><path id="Normal 6" fill="none" stroke="#000" stroke-width="1" d="m758.98 19 .02 73h97l.15-73h25.84l.01 72.98 9.92.02.09 16.96L940 109V18.98l-23.02.05.02-16.04L840 3v15.98z"/><path id="Normal 5" fill="none" stroke="#000" stroke-width="1" d="m578.55 19-.04 90H627l-.02-17H637l.06-73 26.84.04.09 72.96h95.02s.06-73-.03-73h-79.97s-.06-16 0-16l-78.02.02.04 15.98z"/><path id="Normal 4" fill="none" stroke="#000" stroke-width="1" d="M416.01 19.01 416 125h39.01l.05-90.02-10.07-.04V19.08l.04-16.1-78 .08-.03 7.92 49.02.05zm66.08 121.94 18.88.08v-32.04l77.54.01.04-90-18.55.01V3.04h-78.01l.04 7.97 9.99.07-.04 24.01h-10.03z"/><path id="Normal 3" fill="none" stroke="#000" stroke-width="1" d="M239.38 170.65c-19.46 13.01-35.32 30.28-35.32 30.28L192.03 190l1.53-1.52-12.31-11.41-3.25 3.95L166.09 170l2.1-1.9-12.14-11.17-4.02 4.14L140.76 150l-5.75 6.15-17.09-18.27 2.99-2.85-12.01-11.24s28.14-32 61.1-53.79c34.09-22.54 73.03-34.9 73.03-34.9l34.1 116.98s-20.86 7.28-37.75 18.57zm17.94-148.3c-5.87 1.62-11.73 3.76-11.73 3.76l-2.84-7.31S259.1 12.74 280 9.09c24-4.19 52.99-6.03 52.99-6.03v16.02l83.01-.06.04 80.98h-59.1l.05 24.94s-16.46-.68-31.45.4c-13.42.98-25.54 3.73-25.54 3.73L270 27.94 267.87 20s-5.32.92-10.55 2.35z"/><path id="Normal 2" fill="none" stroke="#000" stroke-width="1" d="M13 400h138.99s-.07-3.05-.56-68.16c-.86-27.4 6.59-47.9 6.59-47.9L57.99 251.08l-35.99 3s-4.11 18.66-6.33 37.86c-2.24 19.36-2.6 39.27-2.6 39.27zm168.88-171.65c-9.5 14.42-15.93 30.55-15.93 30.55L50.39 218.3s10.38-27.16 24.69-50.27c14.94-24.13 33.83-44.24 33.83-44.24l12 11.24-3 2.87 17.12 18.27 5.75-6.17 11.24 11.09 4.02-4.15 12.14 11.18-2.11 1.88 11.95 11.02 3.26-3.96 12.26 11.41-1.53 1.53 12.07 10.95s-12.63 12.85-22.2 27.4z"/><path id="Normal 1" fill="none" stroke="#000" stroke-width="1" d="M116.03 657.34c14.59 21.99 32.97 39.73 32.97 39.73l-29 29.03S97.2 703.46 80 678c-16.28-24.1-27.02-51.09-27.02-51.09l38.95-15.82s10.17 25.28 24.1 46.25zm37.07-123.58c1.34 11.08 4.75 20.64 4.75 20.64l-82.57 34.19s-.06-.54-2.17-5.83c-16.17 5.36-.26.03-16.17 5.33-1.81-5.72-1.93-6.12-1.93-6.12L40 585.99 38.07 580l-14.96 5.06s-4.18-13.78-6.31-30.53c-2.8-22.05-3.75-48.55-3.75-48.55L13.01 400H152l.01 106.01s-.47 14.79 1.09 27.75z"/><path id="VIP-Disabled" fill="none" stroke="#000" stroke-width="1" d="m381.89 783 59.1.08v28.93h-59.02zm231.17.02 59.98.04-.06 28.87-59.96.08zm232.93.02 61.97-.03.03 28.96-62-.03zm231-.02 60.01.11-.04 28.84h-60z"/><path id="L-VIP" fill="none" stroke="#000" stroke-width="1" d="M273.56 812.08c34.29 8.24 68.5 5.94 68.5 5.94l-.04-91.08s-31.14.63-58.94-6.94c-27.15-7.4-50.98-23.01-50.98-23.01L200 746.96l4.88 3.04-8.89 13.12s1.95 1.74 4.01 3.08c2.46 1.6 5.12 2.84 5.12 2.84l-9.04 13.88s39.02 19.91 77.48 29.16zm-75.86-139c5.29 4.55 12.3 9.69 12.3 9.69l-33.25 49.62-3.41-2.39-8.24 13.13-10.87-8.12-9.82 12.57-22.26-20.03 65.33-64.16s4.28 4.59 10.22 9.69z"/><path id="VVIP" fill="none" stroke="#000" stroke-width="1" d="m490 785.98 73.04.06.1 13.07h-10.13l.01 16.8-53.02.07v-16.97h-10zm232.99.05 73.01-.04.04 13.05-9.99-.02L786 816l-52.98.03v-17.04l-10.05-.01zm232.04-.01h72.96l.03 13.98h-10l-.02 16-53.02-.02.04-15.98h-10.01z"/><g id="Sector-VIP"><path id="VIP" fill="none" stroke="#000" stroke-width="1" d="M344.93 800h33.99v-20h19.07l.17-52.96-53.29-.06zM428 727l-.03 53h18.02l-.03 19.01h22.05l-.03-19.01h119.04v19l22.04-.04-.04-18.96h17.94l.06-52.95zm232 .02V780h17.01l.03 19H699l-.03-19h120.1l-.03 18.97 23.9.06.14-19.03h15.87l.03-52.97-64.06.03.06 18.94-70.95-.03-.09-18.97zm231.95 0-.01 52.98H910v19h21.98l-.04-19h120l.11 19.01 21.94-.03.02-18.98h18l.01-53.01zm229.04-.01.02 52.99h20.95l.07 19.01h30.96l-.06-72.02z"/><circle cx="352.28" cy="732.102" r="3.7889999999999997" style="display:inline;fill:#00c820;stroke-width:.999088" id="VIP-S-1"/><circle cx="363.039" cy="732.102" r="3.7889999999999997" style="display:inline;fill:#00c820;stroke-width:.999088" id="VIP-S-2"/><circle cx="373.66" cy="732.102" r="3.7889999999999997" style="display:inline;fill:#00c820;stroke-width:.999088" id="VIP-S-3"/><circle cx="383.911" cy="732.102" r="3.7889999999999997" style="display:inline;fill:#00c820;stroke-width:.999088" id="VIP-S-4"/><circle cx="393.571" cy="732.102" r="3.7889999999999997" style="display:inline;fill:#00c820;stroke-width:.999088" id="VIP-S-5"/><circle cx="434.692" cy="732.102" r="3.7889999999999997" style="display:inline;fill:#00c820;stroke-width:.999088" id="VIP-S-6"/><circle id="VIP-S-7" cx="445.194" cy="732.102" r="3.793" style="display:inline;fill:#00c820;stroke-width:1"/><circle id="VIP-S-8" cx="455.75" cy="732.102" r="3.793" style="display:inline;fill:#00c820;stroke-width:1"/><circle id="VIP-S-9" cx="466.305" cy="732.102" r="3.793" style="display:inline;fill:#00c820;stroke-width:1"/><circle id="VIP-S-10" cx="476.698" cy="732.103" r="3.793" style="display:inline;fill:#00c820;stroke-width:1"/><circle id="VIP-S-11" cx="486.97" cy="732.103" r="3.793" style="display:inline;fill:#00c820;stroke-width:1"/><circle id="VIP-S-12" cx="497.464" cy="732.102" r="3.793" style="display:inline;fill:#00c820;stroke-width:1"/><circle id="VIP-S-13" cx="507.675" cy="732.103" r="3.793" style="display:inline;fill:#00c820;stroke-width:1"/><circle id="VIP-S-14" cx="518.039" cy="732.103" r="3.793" style="display:inline;fill:#00c820;stroke-width:1"/><circle id="VIP-S-15" cx="528.788" cy="732.102" r="3.793" style="display:inline;fill:#00c820;stroke-width:1"/><circle id="VIP-S-16" cx="539.099" cy="732.102" r="3.793" style="display:inline;fill:#00c820;stroke-width:1"/><circle id="VIP-S-17" cx="549.757" cy="732.103" r="3.793" style="display:inline;fill:#00c820;stroke-width:1"/><circle id="VIP-S-18" cx="560.223" cy="732.103" r="3.793" style="display:inline;fill:#00c820;stroke-width:1"/><circle id="VIP-S-19" cx="570.768" cy="732.102" r="3.793" style="display:inline;fill:#00c820;stroke-width:1"/><circle id="VIP-S-20" cx="581.304" cy="732.103" r="3.793" style="display:inline;fill:#00c820;stroke-width:1"/><circle id="VIP-S-21" cx="591.41" cy="732.102" r="3.793" style="display:inline;fill:#00c820;stroke-width:1"/><circle id="VIP-S-22" cx="602.029" cy="732.103" r="3.793" style="display:inline;fill:#00c820;stroke-width:1"/><circle id="VIP-S-23" cx="612.645" cy="732.102" r="3.793" style="display:inline;fill:#00c820;stroke-width:1"/><circle id="VIP-S-24" cx="622.652" cy="732.102" r="3.793" style="display:inline;fill:#00c820;stroke-width:1"/><circle id="VIP-S-25" cx="666.854" cy="732.103" r="3.793" style="display:inline;fill:#00c820;stroke-width:1"/><circle id="VIP-S-26" cx="677.347" cy="732.103" r="3.793" style="display:inline;fill:#00c820;stroke-width:1"/><circle id="VIP-S-27" cx="687.883" cy="732.102" r="3.793" style="display:inline;fill:#00c820;stroke-width:1"/><circle id="VIP-S-28" cx="698.398" cy="732.102" r="3.793" style="display:inline;fill:#00c820;stroke-width:1"/><circle id="VIP-S-29" cx="708.733" cy="732.102" r="3.793" style="display:inline;fill:#00c820;stroke-width:1"/><circle id="VIP-S-30" cx="719.134" cy="732.103" r="3.793" style="display:inline;fill:#00c820;stroke-width:1"/><circle id="VIP-S-31" cx="802.085" cy="732.103" r="3.793" style="display:inline;fill:#00c820;stroke-width:1"/><circle id="VIP-S-32" cx="812.887" cy="732.102" r="3.793" style="display:inline;fill:#00c820;stroke-width:1"/><circle id="VIP-S-33" cx="823.382" cy="732.103" r="3.793" style="display:inline;fill:#00c820;stroke-width:1"/><circle id="VIP-S-34" cx="833.957" cy="732.102" r="3.793" style="display:inline;fill:#00c820;stroke-width:1"/><circle id="VIP-S-35" cx="844.288" cy="732.103" r="3.793" style="display:inline;fill:#00c820;stroke-width:1"/><circle id="VIP-S-36" cx="854.599" cy="732.103" r="3.793" style="display:inline;fill:#00c820;stroke-width:1"/><circle id="VIP-S-37" cx="898.477" cy="732.103" r="3.793" style="display:inline;fill:#00c820;stroke-width:1"/><circle id="VIP-S-38" cx="908.982" cy="732.103" r="3.793" style="display:inline;fill:#00c820;stroke-width:1"/><circle id="VIP-S-39" cx="919.256" cy="732.103" r="3.793" style="display:inline;fill:#00c820;stroke-width:1"/><circle id="VIP-S-40" cx="929.913" cy="732.103" r="3.793" style="display:inline;fill:#00c820;stroke-width:1"/><circle id="VIP-S-41" cx="940.32" cy="732.103" r="3.793" style="display:inline;fill:#00c820;stroke-width:1"/><circle id="VIP-S-42" cx="950.653" cy="732.103" r="3.793" style="display:inline;fill:#00c820;stroke-width:1"/><circle id="VIP-S-43" cx="961.097" cy="732.103" r="3.793" style="display:inline;fill:#00c820;stroke-width:1"/><circle id="VIP-S-44" cx="971.641" cy="732.103" r="3.793" style="display:inline;fill:#00c820;stroke-width:1"/><circle id="VIP-S-45" cx="981.972" cy="732.103" r="3.793" style="display:inline;fill:#00c820;stroke-width:1"/><circle id="VIP-S-46" cx="992.764" cy="732.103" r="3.793" style="display:inline;fill:#00c820;stroke-width:1"/><circle id="VIP-S-47" cx="1003.287" cy="732.103" r="3.793" style="display:inline;fill:#00c820;stroke-width:1"/><circle id="VIP-S-48" cx="1013.617" cy="732.102" r="3.793" style="display:inline;fill:#00c820;stroke-width:1"/><circle id="VIP-S-49" cx="1023.796" cy="732.103" r="3.793" style="display:inline;fill:#00c820;stroke-width:1"/><circle id="VIP-S-50" cx="1034.626" cy="732.103" r="3.793" style="display:inline;fill:#00c820;stroke-width:1"/><circle id="VIP-S-51" cx="1044.823" cy="732.103" r="3.793" style="display:inline;fill:#00c820;stroke-width:1"/><circle id="VIP-S-52" cx="1055.25" cy="732.103" r="3.793" style="display:inline;fill:#00c820;stroke-width:1"/><circle id="VIP-S-53" cx="1065.505" cy="732.103" r="3.793" style="display:inline;fill:#00c820;stroke-width:1"/><circle id="VIP-S-54" cx="1076.335" cy="732.103" r="3.793" style="display:inline;fill:#00c820;stroke-width:1"/><circle id="VIP-S-55" cx="1086.974" cy="732.103" r="3.793" style="display:inline;fill:#00c820;stroke-width:1"/><circle id="VIP-S-56" cx="1126.667" cy="732.103" r="3.793" style="display:inline;fill:#00c820;stroke-width:1"/><circle id="VIP-S-57" cx="1137.267" cy="732.103" r="3.793" style="display:inline;fill:#00c820;stroke-width:1"/><circle id="VIP-S-58" cx="1147.847" cy="732.103" r="3.793" style="display:inline;fill:#00c820;stroke-width:1"/><circle id="VIP-S-59" cx="1158.447" cy="732.103" r="3.793" style="display:inline;fill:#00c820;stroke-width:1"/><circle id="VIP-S-60" cx="1168.221" cy="732.103" r="3.793" style="display:inline;fill:#00c820;stroke-width:1"/><circle id="VIP-S-61" cx="352.451" cy="751.673" r="3.793" style="display:inline;fill:#00c820;stroke-width:1"/><circle id="VIP-S-62" cx="363.01" cy="751.714" r="3.793" style="display:inline;fill:#00c820;stroke-width:1"/><circle id="VIP-S-63" cx="373.665" cy="751.714" r="3.793" style="display:inline;fill:#00c820;stroke-width:1"/><circle id="VIP-S-64" cx="384.001" cy="751.714" r="3.793" style="display:inline;fill:#00c820;stroke-width:1"/><circle id="VIP-S-65" cx="393.473" cy="751.714" r="3.793" style="display:inline;fill:#00c820;stroke-width:1"/><circle id="VIP-S-66" cx="434.332" cy="751.714" r="3.793" style="display:inline;fill:#00c820;stroke-width:1"/><circle id="VIP-S-67" cx="445.256" cy="751.714" r="3.793" style="display:inline;fill:#00c820;stroke-width:1"/><circle id="VIP-S-68" cx="455.851" cy="751.714" r="3.793" style="display:inline;fill:#00c820;stroke-width:1"/><circle id="VIP-S-69" cx="466.452" cy="751.714" r="3.793" style="display:inline;fill:#00c820;stroke-width:1"/><circle id="VIP-S-70" cx="476.718" cy="751.714" r="3.793" style="display:inline;fill:#00c820;stroke-width:1"/><circle id="VIP-S-71" cx="486.848" cy="751.714" r="3.793" style="display:inline;fill:#00c820;stroke-width:1"/><circle id="VIP-S-72" cx="497.404" cy="751.714" r="3.793" style="display:inline;fill:#00c820;stroke-width:1"/><circle id="VIP-S-73" cx="507.775" cy="751.714" r="3.793" style="display:inline;fill:#00c820;stroke-width:1"/><circle id="VIP-S-74" cx="518.232" cy="751.714" r="3.793" style="display:inline;fill:#00c820;stroke-width:1"/><circle id="VIP-S-75" cx="528.89" cy="751.714" r="3.793" style="display:inline;fill:#00c820;stroke-width:1"/><circle id="VIP-S-76" cx="539.566" cy="751.714" r="3.793" style="display:inline;fill:#00c820;stroke-width:1"/><circle id="VIP-S-77" cx="549.654" cy="751.714" r="3.793" style="display:inline;fill:#00c820;stroke-width:1"/><circle id="VIP-S-78" cx="560.373" cy="751.714" r="3.793" style="display:inline;fill:#00c820;stroke-width:1"/><circle id="VIP-S-79" cx="570.667" cy="751.714" r="3.793" style="display:inline;fill:#00c820;stroke-width:1"/><circle id="VIP-S-80" cx="581.162" cy="751.714" r="3.793" style="display:inline;fill:#00c820;stroke-width:1"/><circle id="VIP-S-81" cx="591.555" cy="751.714" r="3.793" style="display:inline;fill:#00c820;stroke-width:1"/><circle id="VIP-S-82" cx="602.071" cy="751.714" r="3.793" style="display:inline;fill:#00c820;stroke-width:1"/><circle id="VIP-S-83" cx="612.344" cy="751.714" r="3.793" style="display:inline;fill:#00c820;stroke-width:1"/><circle id="VIP-S-84" cx="622.305" cy="751.714" r="3.793" style="display:inline;fill:#00c820;stroke-width:1"/><circle id="VIP-S-85" cx="666.241" cy="751.714" r="3.793" style="display:inline;fill:#00c820;stroke-width:1"/><circle id="VIP-S-86" cx="676.248" cy="751.714" r="3.793" style="display:inline;fill:#00c820;stroke-width:1"/><circle id="VIP-S-87" cx="687.558" cy="751.714" r="3.793" style="display:inline;fill:#00c820;stroke-width:1"/><circle id="VIP-S-88" cx="698.049" cy="751.714" r="3.793" style="display:inline;fill:#00c820;stroke-width:1"/><circle id="VIP-S-89" cx="708.223" cy="751.714" r="3.793" style="display:inline;fill:#00c820;stroke-width:1"/><circle id="VIP-S-90" cx="718.757" cy="751.714" r="3.793" style="display:inline;fill:#00c820;stroke-width:1"/><circle id="VIP-S-91" cx="729.291" cy="751.714" r="3.793" style="display:inline;fill:#00c820;stroke-width:1"/><circle id="VIP-S-92" cx="739.564" cy="751.714" r="3.793" style="display:inline;fill:#00c820;stroke-width:1"/><circle id="VIP-S-93" cx="750.059" cy="751.714" r="3.793" style="display:inline;fill:#00c820;stroke-width:1"/><circle id="VIP-S-94" cx="760.859" cy="751.714" r="3.793" style="display:inline;fill:#00c820;stroke-width:1"/><circle id="VIP-S-95" cx="770.965" cy="751.714" r="3.793" style="display:inline;fill:#00c820;stroke-width:1"/><circle id="VIP-S-96" cx="781.28" cy="751.714" r="3.793" style="display:inline;fill:#00c820;stroke-width:1"/><circle id="VIP-S-97" cx="791.836" cy="751.714" r="3.793" style="display:inline;fill:#00c820;stroke-width:1"/><circle id="VIP-S-98" cx="801.942" cy="751.714" r="3.793" style="display:inline;fill:#00c820;stroke-width:1"/><circle id="VIP-S-99" cx="812.6" cy="751.714" r="3.793" style="display:inline;fill:#00c820;stroke-width:1"/><circle id="VIP-S-100" cx="822.975" cy="751.714" r="3.793" style="display:inline;fill:#00c820;stroke-width:1"/><circle id="VIP-S-101" cx="833.428" cy="751.714" r="3.793" style="display:inline;fill:#00c820;stroke-width:1"/><circle id="VIP-S-102" cx="843.799" cy="751.714" r="3.793" style="display:inline;fill:#00c820;stroke-width:1"/><circle id="VIP-S-103" cx="854.274" cy="751.714" r="3.793" style="display:inline;fill:#00c820;stroke-width:1"/><circle cx="898.329" cy="751.714" r="3.7889999999999997" style="display:inline;fill:#00c820;stroke-width:.999088" id="VIP-S-104"/><circle cx="908.722" cy="751.714" r="3.7889999999999997" style="display:inline;fill:#00c820;stroke-width:.999088" id="VIP-S-105"/><circle cx="919.401" cy="751.714" r="3.7889999999999997" style="display:inline;fill:#00c820;stroke-width:.999088" id="VIP-S-106"/><circle cx="929.935" cy="751.714" r="3.7889999999999997" style="display:inline;fill:#00c820;stroke-width:.999088" id="VIP-S-107"/><circle cx="940.388" cy="751.714" r="3.7889999999999997" style="display:inline;fill:#00c820;stroke-width:.999088" id="VIP-S-108"/><circle cx="950.781" cy="751.714" r="3.7889999999999997" style="display:inline;fill:#00c820;stroke-width:.999088" id="VIP-S-109"/><circle cx="961.114" cy="751.714" r="3.7889999999999997" style="display:inline;fill:#00c820;stroke-width:.999088" id="VIP-S-110"/><circle cx="971.648" cy="751.714" r="3.7889999999999997" style="display:inline;fill:#00c820;stroke-width:.999088" id="VIP-S-111"/><circle cx="982.105" cy="751.714" r="3.7889999999999997" style="display:inline;fill:#00c820;stroke-width:.999088" id="VIP-S-112"/><circle cx="992.682" cy="751.714" r="3.7889999999999997" style="display:inline;fill:#00c820;stroke-width:.999088" id="VIP-S-113"/><circle cx="1003.135" cy="751.714" r="3.7889999999999997" style="display:inline;fill:#00c820;stroke-width:.999088" id="VIP-S-114"/><circle cx="1013.711" cy="751.714" r="3.7889999999999997" style="display:inline;fill:#00c820;stroke-width:.999088" id="VIP-S-115"/><circle cx="1023.984" cy="751.714" r="3.7889999999999997" style="display:inline;fill:#00c820;stroke-width:.999088" id="VIP-S-116"/><circle cx="1034.355" cy="751.714" r="3.7889999999999997" style="display:inline;fill:#00c820;stroke-width:.999088" id="VIP-S-117"/><circle cx="1044.932" cy="751.714" r="3.7889999999999997" style="display:inline;fill:#00c820;stroke-width:.999088" id="VIP-S-118"/><circle cx="1055.711" cy="751.714" r="3.7889999999999997" style="display:inline;fill:#00c820;stroke-width:.999088" id="VIP-S-119"/><circle cx="1065.76" cy="751.714" r="3.7889999999999997" style="display:inline;fill:#00c820;stroke-width:.999088" id="VIP-S-120"/><circle cx="1076.05" cy="751.714" r="3.7889999999999997" style="display:inline;fill:#00c820;stroke-width:.999088" id="VIP-S-121"/><circle cx="1086.829" cy="751.714" r="3.7889999999999997" style="display:inline;fill:#00c820;stroke-width:.999088" id="VIP-S-122"/><circle cx="1126.936" cy="751.714" r="3.7889999999999997" style="display:inline;fill:#00c820;stroke-width:.999088" id="VIP-S-123"/><circle cx="1137.365" cy="751.714" r="3.7889999999999997" style="display:inline;fill:#00c820;stroke-width:.999088" id="VIP-S-124"/><circle cx="1147.85" cy="751.714" r="3.7889999999999997" style="display:inline;fill:#00c820;stroke-width:.999088" id="VIP-S-125"/><circle cx="1158.257" cy="751.714" r="3.7889999999999997" style="display:inline;fill:#00c820;stroke-width:.999088" id="VIP-S-126"/><circle cx="1168.704" cy="751.714" r="3.7889999999999997" style="display:inline;fill:#00c820;stroke-width:.999088" id="VIP-S-127"/><circle cx="352.506" cy="771.269" r="3.7889999999999997" style="display:inline;fill:#00c820;stroke-width:.999088" id="VIP-S-128"/><circle cx="363.267" cy="771.269" r="3.7889999999999997" style="display:inline;fill:#00c820;stroke-width:.999088" id="VIP-S-129"/><circle cx="373.476" cy="771.269" r="3.7889999999999997" style="display:inline;fill:#00c820;stroke-width:.999088" id="VIP-S-130"/><circle cx="383.766" cy="771.269" r="3.7889999999999997" style="display:inline;fill:#00c820;stroke-width:.999088" id="VIP-S-131"/><circle cx="393.386" cy="771.269" r="3.7889999999999997" style="display:inline;fill:#00c820;stroke-width:.999088" id="VIP-S-132"/><circle cx="434.469" cy="771.269" r="3.7889999999999997" style="display:inline;fill:#00c820;stroke-width:.999088" id="VIP-S-133"/><circle cx="445.209" cy="771.269" r="3.7889999999999997" style="display:inline;fill:#00c820;stroke-width:.999088" id="VIP-S-134"/><circle cx="455.541" cy="771.269" r="3.7889999999999997" style="display:inline;fill:#00c820;stroke-width:.999088" id="VIP-S-135"/><circle cx="466.054" cy="771.269" r="3.7889999999999997" style="display:inline;fill:#00c820;stroke-width:.999088" id="VIP-S-136"/><circle cx="476.022" cy="771.269" r="3.7889999999999997" style="display:inline;fill:#00c820;stroke-width:.999088" id="VIP-S-137"/><circle cx="486.985" cy="771.269" r="3.7889999999999997" style="display:inline;fill:#00c820;stroke-width:.999088" id="VIP-S-138"/><circle cx="497.296" cy="771.269" r="3.7889999999999997" style="display:inline;fill:#00c820;stroke-width:.999088" id="VIP-S-139"/><circle cx="508.015" cy="771.269" r="3.7889999999999997" style="display:inline;fill:#00c820;stroke-width:.999088" id="VIP-S-140"/><circle cx="518.043" cy="771.269" r="3.7889999999999997" style="display:inline;fill:#00c820;stroke-width:.999088" id="VIP-S-141"/><circle cx="528.577" cy="771.269" r="3.7889999999999997" style="display:inline;fill:#00c820;stroke-width:.999088" id="VIP-S-142"/><circle cx="539.214" cy="771.269" r="3.7889999999999997" style="display:inline;fill:#00c820;stroke-width:.999088" id="VIP-S-143"/><circle cx="549.426" cy="771.269" r="3.7889999999999997" style="display:inline;fill:#00c820;stroke-width:.999088" id="VIP-S-144"/><circle cx="560.244" cy="771.269" r="3.7889999999999997" style="display:inline;fill:#00c820;stroke-width:.999088" id="VIP-S-145"/><circle cx="570.739" cy="771.269" r="3.7889999999999997" style="display:inline;fill:#00c820;stroke-width:.999088" id="VIP-S-146"/><circle cx="581.217" cy="771.269" r="3.7889999999999997" style="display:inline;fill:#00c820;stroke-width:.999088" id="VIP-S-147"/><circle cx="591.812" cy="771.269" r="3.7889999999999997" style="display:inline;fill:#00c820;stroke-width:.999088" id="VIP-S-148"/><circle cx="602.144" cy="771.269" r="3.7889999999999997" style="display:inline;fill:#00c820;stroke-width:.999088" id="VIP-S-149"/><circle cx="612.335" cy="771.269" r="3.7889999999999997" style="display:inline;fill:#00c820;stroke-width:.999088" id="VIP-S-150"/><circle cx="622.257" cy="771.269" r="3.7889999999999997" style="display:inline;fill:#00c820;stroke-width:.999088" id="VIP-S-151"/><circle cx="666.278" cy="771.269" r="3.7889999999999997" style="display:inline;fill:#00c820;stroke-width:.999088" id="VIP-S-152"/><circle cx="676.877" cy="771.269" r="3.7889999999999997" style="display:inline;fill:#00c820;stroke-width:.999088" id="VIP-S-153"/><circle cx="687.363" cy="771.269" r="3.7889999999999997" style="display:inline;fill:#00c820;stroke-width:.999088" id="VIP-S-154"/><circle cx="698.04" cy="771.269" r="3.7889999999999997" style="display:inline;fill:#00c820;stroke-width:.999088" id="VIP-S-155"/><circle cx="708.293" cy="771.269" r="3.7889999999999997" style="display:inline;fill:#00c820;stroke-width:.999088" id="VIP-S-156"/><circle cx="718.932" cy="771.269" r="3.7889999999999997" style="display:inline;fill:#00c820;stroke-width:.999088" id="VIP-S-157"/><circle cx="728.994" cy="771.269" r="3.7889999999999997" style="display:inline;fill:#00c820;stroke-width:.999088" id="VIP-S-158"/><circle cx="739.94" cy="771.269" r="3.7889999999999997" style="display:inline;fill:#00c820;stroke-width:.999088" id="VIP-S-159"/><circle cx="750.464" cy="771.269" r="3.7889999999999997" style="display:inline;fill:#00c820;stroke-width:.999088" id="VIP-S-160"/><circle cx="760.718" cy="771.269" r="3.7889999999999997" style="display:inline;fill:#00c820;stroke-width:.999088" id="VIP-S-161"/><circle cx="771.011" cy="771.269" r="3.7889999999999997" style="display:inline;fill:#00c820;stroke-width:.999088" id="VIP-S-162"/><circle cx="781.456" cy="771.269" r="3.7889999999999997" style="display:inline;fill:#00c820;stroke-width:.999088" id="VIP-S-163"/><circle cx="792.019" cy="771.269" r="3.7889999999999997" style="display:inline;fill:#00c820;stroke-width:.999088" id="VIP-S-164"/><circle cx="801.774" cy="771.269" r="3.7889999999999997" style="display:inline;fill:#00c820;stroke-width:.999088" id="VIP-S-165"/><circle cx="812.565" cy="771.269" r="3.7889999999999997" style="display:inline;fill:#00c820;stroke-width:.999088" id="VIP-S-166"/><circle cx="822.935" cy="771.269" r="3.7889999999999997" style="display:inline;fill:#00c820;stroke-width:.999088" id="VIP-S-167"/><circle cx="833.612" cy="771.269" r="3.7889999999999997" style="display:inline;fill:#00c820;stroke-width:.999088" id="VIP-S-168"/><circle cx="844.058" cy="771.269" r="3.7889999999999997" style="display:inline;fill:#00c820;stroke-width:.999088" id="VIP-S-169"/><circle cx="854.543" cy="771.269" r="3.7889999999999997" style="display:inline;fill:#00c820;stroke-width:.999088" id="VIP-S-170"/><circle cx="898.817" cy="771.269" r="3.7889999999999997" style="display:inline;fill:#00c820;stroke-width:.999088" id="VIP-S-171"/><circle cx="908.945" cy="771.269" r="3.7889999999999997" style="display:inline;fill:#00c820;stroke-width:.999088" id="VIP-S-172"/><circle cx="919.766" cy="771.269" r="3.7889999999999997" style="display:inline;fill:#00c820;stroke-width:.999088" id="VIP-S-173"/><circle cx="930.424" cy="771.269" r="3.7889999999999997" style="display:inline;fill:#00c820;stroke-width:.999088" id="VIP-S-174"/><circle cx="940.268" cy="771.269" r="3.7889999999999997" style="display:inline;fill:#00c820;stroke-width:.999088" id="VIP-S-175"/><circle cx="950.7" cy="771.269" r="3.7889999999999997" style="display:inline;fill:#00c820;stroke-width:.999088" id="VIP-S-176"/><circle cx="961.542" cy="771.269" r="3.7889999999999997" style="display:inline;fill:#00c820;stroke-width:.999088" id="VIP-S-177"/><circle cx="971.875" cy="771.269" r="3.7889999999999997" style="display:inline;fill:#00c820;stroke-width:.999088" id="VIP-S-178"/><circle cx="982.207" cy="771.269" r="3.7889999999999997" style="display:inline;fill:#00c820;stroke-width:.999088" id="VIP-S-179"/><circle cx="992.639" cy="771.269" r="3.7889999999999997" style="display:inline;fill:#00c820;stroke-width:.999088" id="VIP-S-180"/><circle cx="1003.319" cy="771.269" r="3.7889999999999997" style="display:inline;fill:#00c820;stroke-width:.999088" id="VIP-S-181"/><circle cx="1013.672" cy="771.269" r="3.7889999999999997" style="display:inline;fill:#00c820;stroke-width:.999088" id="VIP-S-182"/><circle cx="1023.984" cy="771.269" r="3.7889999999999997" style="display:inline;fill:#00c820;stroke-width:.999088" id="VIP-S-183"/><circle cx="1034.741" cy="771.269" r="3.7889999999999997" style="display:inline;fill:#00c820;stroke-width:.999088" id="VIP-S-184"/><circle cx="1045.095" cy="771.269" r="3.7889999999999997" style="display:inline;fill:#00c820;stroke-width:.999088" id="VIP-S-185"/><circle cx="1055.428" cy="771.269" r="3.7889999999999997" style="display:inline;fill:#00c820;stroke-width:.999088" id="VIP-S-186"/><circle cx="1065.88" cy="771.269" r="3.7889999999999997" style="display:inline;fill:#00c820;stroke-width:.999088" id="VIP-S-187"/><circle cx="1076.397" cy="771.269" r="3.7889999999999997" style="display:inline;fill:#00c820;stroke-width:.999088" id="VIP-S-188"/><circle cx="1087.239" cy="771.269" r="3.7889999999999997" style="display:inline;fill:#00c820;stroke-width:.999088" id="VIP-S-189"/><circle cx="1126.611" cy="771.269" r="3.7889999999999997" style="display:inline;fill:#00c820;stroke-width:.999088" id="VIP-S-190"/><circle cx="1137.787" cy="771.269" r="3.7889999999999997" style="display:inline;fill:#00c820;stroke-width:.999088" id="VIP-S-191"/><circle cx="1148.272" cy="771.269" r="3.7889999999999997" style="display:inline;fill:#00c820;stroke-width:.999088" id="VIP-S-192"/><circle cx="1158.219" cy="771.269" r="3.7889999999999997" style="display:inline;fill:#00c820;stroke-width:.999088" id="VIP-S-193"/><circle cx="1168.166" cy="771.269" r="3.7889999999999997" style="display:inline;fill:#00c820;stroke-width:.999088" id="VIP-S-194"/><circle cx="352.424" cy="790.579" r="3.7889999999999997" style="display:inline;fill:#00c820;stroke-width:.999088" id="VIP-S-195"/><circle cx="363.409" cy="790.501" r="3.7889999999999997" style="display:inline;fill:#00c820;stroke-width:.999088" id="VIP-S-196"/><circle cx="373.702" cy="790.771" r="3.7889999999999997" style="display:inline;fill:#00c820;stroke-width:.999088" id="VIP-S-197"/><circle cx="452.703" cy="790.463" r="3.7889999999999997" style="display:inline;fill:#00c820;stroke-width:.999088" id="VIP-S-198"/><circle cx="463.687" cy="790.386" r="3.7889999999999997" style="display:inline;fill:#00c820;stroke-width:.999088" id="VIP-S-199"/><circle cx="593.513" cy="789.997" r="3.7889999999999997" style="display:inline;fill:#00c820;stroke-width:.999088" id="VIP-S-200"/><circle cx="604.014" cy="789.997" r="3.7889999999999997" style="display:inline;fill:#00c820;stroke-width:.999088" id="VIP-S-201"/><circle cx="683.252" cy="789.997" r="3.7889999999999997" style="display:inline;fill:#00c820;stroke-width:.999088" id="VIP-S-202"/><circle cx="693.739" cy="789.997" r="3.7889999999999997" style="display:inline;fill:#00c820;stroke-width:.999088" id="VIP-S-203"/><circle cx="826.045" cy="789.997" r="3.7889999999999997" style="display:inline;fill:#00c820;stroke-width:.999088" id="VIP-S-204"/><circle cx="837.338" cy="789.997" r="3.7889999999999997" style="display:inline;fill:#00c820;stroke-width:.999088" id="VIP-S-205"/><circle cx="916.069" cy="789.997" r="3.7889999999999997" style="display:inline;fill:#00c820;stroke-width:.999088" id="VIP-S-206"/><circle cx="926.593" cy="789.997" r="3.7889999999999997" style="display:inline;fill:#00c820;stroke-width:.999088" id="VIP-S-207"/><circle cx="1057.788" cy="789.997" r="3.7889999999999997" style="display:inline;fill:#00c820;stroke-width:.999088" id="VIP-S-208"/><circle cx="1068.08" cy="789.997" r="3.7889999999999997" style="display:inline;fill:#00c820;stroke-width:.999088" id="VIP-S-209"/><circle cx="1147.043" cy="789.997" r="3.7889999999999997" style="display:inline;fill:#00c820;stroke-width:.999088" id="VIP-S-210"/><circle cx="1158.027" cy="789.997" r="3.7889999999999997" style="display:inline;fill:#00c820;stroke-width:.999088" id="VIP-S-211"/><circle cx="1168.626" cy="789.997" r="3.7889999999999997" style="display:inline;fill:#00c820;stroke-width:.999088" id="VIP-S-212"/></g><g id="Sector-R-VIP" style="display:inline;opacity:1"><path id="R-VIP" fill="none" stroke="#000" stroke-width="1" d="M1237.84 720c-27.79 7.65-60.86 7.01-60.86 7.01l-.03 92.04s49.84-.79 85.52-11.57c34.09-8.54 58.7-24.52 58.69-24.52-.03 0-8.38-12.96-8.38-12.96l10.52-6.45-8.92-13.55 5.62-2.97-34.01-50.03s-21.46 15.65-48.15 23zm70.06-36.81s7.19-5.01 13.96-10.99c7.39-6.51 14.4-14.04 14.4-14.04l65.85 64.72s-7 7.13-14.51 13.79c-8.49 7.53-17.6 14.7-17.6 14.7l-10-13.52-9.1 6.58z" style="display:inline"/><circle cx="1182.174" cy="732.983" r="3.7889999999999997" style="fill:#00c820;stroke-width:.999088" id="R-VIP-S-1"/><circle cx="1192.185" cy="732.946" r="3.7889999999999997" style="fill:#00c820;stroke-width:.999088" id="R-VIP-S-2"/><circle cx="1202.153" cy="731.803" r="3.7889999999999997" style="fill:#00c820;stroke-width:.999088" id="R-VIP-S-3"/><circle cx="1212.257" cy="730.46" r="3.7889999999999997" style="fill:#00c820;stroke-width:.999088" id="R-VIP-S-4"/><circle cx="1222.043" cy="728.907" r="3.7889999999999997" style="fill:#00c820;stroke-width:.999088" id="R-VIP-S-5"/><circle cx="1231.516" cy="726.5" r="3.7889999999999997" style="fill:#00c820;stroke-width:.999088" id="R-VIP-S-6"/><circle cx="1241.238" cy="724.276" r="3.7889999999999997" style="fill:#00c820;stroke-width:.999088" id="R-VIP-S-7"/><circle cx="1250.776" cy="721.38" r="3.7889999999999997" style="fill:#00c820;stroke-width:.999088" id="R-VIP-S-8"/><circle cx="1260.375" cy="717.933" r="3.7889999999999997" style="fill:#00c820;stroke-width:.999088" id="R-VIP-S-9"/><circle cx="1269.463" cy="713.79" r="3.7889999999999997" style="fill:#00c820;stroke-width:.999088" id="R-VIP-S-10"/><circle cx="1278.043" cy="709.67" r="3.7889999999999997" style="fill:#00c820;stroke-width:.999088" id="R-VIP-S-11"/><circle cx="1285.787" cy="705.12" r="3.7889999999999997" style="fill:#00c820;stroke-width:.999088" id="R-VIP-S-12"/><circle cx="1315.273" cy="685.275" r="3.7889999999999997" style="fill:#00c820;stroke-width:.999088" id="R-VIP-S-13"/><circle cx="1322.454" cy="679.57" r="3.7889999999999997" style="fill:#00c820;stroke-width:.999088" id="R-VIP-S-14"/><circle cx="1330.008" cy="673.017" r="3.7889999999999997" style="fill:#00c820;stroke-width:.999088" id="R-VIP-S-15"/><circle cx="1337.189" cy="666.542" r="3.7889999999999997" style="fill:#00c820;stroke-width:.999088" id="R-VIP-S-16"/><circle cx="1181.872" cy="749.55" r="3.7889999999999997" style="fill:#00c820;stroke-width:.999088" id="R-VIP-S-17"/><circle cx="1192.237" cy="749.353" r="3.7889999999999997" style="fill:#00c820;stroke-width:.999088" id="R-VIP-S-18"/><circle cx="1202.175" cy="748.43" r="3.7889999999999997" style="fill:#00c820;stroke-width:.999088" id="R-VIP-S-19"/><circle cx="1211.81" cy="747.27" r="3.7889999999999997" style="fill:#00c820;stroke-width:.999088" id="R-VIP-S-20"/><circle cx="1221.796" cy="745.289" r="3.7889999999999997" style="fill:#00c820;stroke-width:.999088" id="R-VIP-S-21"/><circle cx="1231.665" cy="743.271" r="3.7889999999999997" style="fill:#00c820;stroke-width:.999088" id="R-VIP-S-22"/><circle cx="1241.029" cy="740.851" r="3.7889999999999997" style="fill:#00c820;stroke-width:.999088" id="R-VIP-S-23"/><circle cx="1250.545" cy="737.831" r="3.7889999999999997" style="fill:#00c820;stroke-width:.999088" id="R-VIP-S-24"/><circle cx="1260.081" cy="734.444" r="3.7889999999999997" style="fill:#00c820;stroke-width:.999088" id="R-VIP-S-25"/><circle cx="1269.144" cy="730.962" r="3.7889999999999997" style="fill:#00c820;stroke-width:.999088" id="R-VIP-S-26"/><circle cx="1278.095" cy="726.911" r="3.7889999999999997" style="fill:#00c820;stroke-width:.999088" id="R-VIP-S-27"/><circle cx="1287.037" cy="722.819" r="3.7889999999999997" style="fill:#00c820;stroke-width:.999088" id="R-VIP-S-28"/><circle cx="1295.158" cy="718.67" r="3.7889999999999997" style="fill:#00c820;stroke-width:.999088" id="R-VIP-S-29"/><circle cx="1325.493" cy="697.758" r="3.7889999999999997" style="fill:#00c820;stroke-width:.999088" id="R-VIP-S-30"/><circle cx="1333.498" cy="691.769" r="3.7889999999999997" style="fill:#00c820;stroke-width:.999088" id="R-VIP-S-31"/><circle cx="1341.393" cy="684.961" r="3.7889999999999997" style="fill:#00c820;stroke-width:.999088" id="R-VIP-S-32"/><circle cx="1348.611" cy="678.215" r="3.7889999999999997" style="fill:#00c820;stroke-width:.999088" id="R-VIP-S-33"/><circle cx="1181.608" cy="765.708" r="3.7889999999999997" style="fill:#00c820;stroke-width:.999088" id="R-VIP-S-34"/><circle cx="1192.362" cy="765.366" r="3.7889999999999997" style="fill:#00c820;stroke-width:.999088" id="R-VIP-S-35"/><circle cx="1202.159" cy="764.42" r="3.7889999999999997" style="fill:#00c820;stroke-width:.999088" id="R-VIP-S-36"/><circle cx="1211.927" cy="763.422" r="3.7889999999999997" style="fill:#00c820;stroke-width:.999088" id="R-VIP-S-37"/><circle cx="1221.848" cy="761.802" r="3.7889999999999997" style="fill:#00c820;stroke-width:.999088" id="R-VIP-S-38"/><circle cx="1231.59" cy="759.934" r="3.7889999999999997" style="fill:#00c820;stroke-width:.999088" id="R-VIP-S-39"/><circle cx="1241.106" cy="757.612" r="3.7889999999999997" style="fill:#00c820;stroke-width:.999088" id="R-VIP-S-40"/><circle cx="1250.644" cy="754.9" r="3.7889999999999997" style="fill:#00c820;stroke-width:.999088" id="R-VIP-S-41"/><circle cx="1260.201" cy="751.903" r="3.7889999999999997" style="fill:#00c820;stroke-width:.999088" id="R-VIP-S-42"/><circle cx="1269.638" cy="748.275" r="3.7889999999999997" style="fill:#00c820;stroke-width:.999088" id="R-VIP-S-43"/><circle cx="1278.747" cy="744.727" r="3.7889999999999997" style="fill:#00c820;stroke-width:.999088" id="R-VIP-S-44"/><circle cx="1287.796" cy="740.975" r="3.7889999999999997" style="fill:#00c820;stroke-width:.999088" id="R-VIP-S-45"/><circle cx="1296.416" cy="736.693" r="3.7889999999999997" style="fill:#00c820;stroke-width:.999088" id="R-VIP-S-46"/><circle cx="1304.162" cy="732.166" r="3.7889999999999997" style="fill:#00c820;stroke-width:.999088" id="R-VIP-S-47"/><circle cx="1334.476" cy="711.743" r="3.7889999999999997" style="fill:#00c820;stroke-width:.999088" id="R-VIP-S-48"/><circle cx="1343.025" cy="704.356" r="3.7889999999999997" style="fill:#00c820;stroke-width:.999088" id="R-VIP-S-49"/><circle cx="1350.947" cy="697.785" r="3.7889999999999997" style="fill:#00c820;stroke-width:.999088" id="R-VIP-S-50"/><circle cx="1357.99" cy="690.876" r="3.7889999999999997" style="fill:#00c820;stroke-width:.999088" id="R-VIP-S-51"/><circle cx="1182.166" cy="781.973" r="3.7889999999999997" style="fill:#00c820;stroke-width:.999088" id="R-VIP-S-52"/><circle cx="1191.946" cy="781.159" r="3.7889999999999997" style="fill:#00c820;stroke-width:.999088" id="R-VIP-S-53"/><circle cx="1201.997" cy="780.438" r="3.7889999999999997" style="fill:#00c820;stroke-width:.999088" id="R-VIP-S-54"/><circle cx="1211.698" cy="779.496" r="3.7889999999999997" style="fill:#00c820;stroke-width:.999088" id="R-VIP-S-55"/><circle cx="1221.416" cy="778.191" r="3.7889999999999997" style="fill:#00c820;stroke-width:.999088" id="R-VIP-S-56"/><circle cx="1231.206" cy="776.421" r="3.7889999999999997" style="fill:#00c820;stroke-width:.999088" id="R-VIP-S-57"/><circle cx="1241.061" cy="774.911" r="3.7889999999999997" style="fill:#00c820;stroke-width:.999088" id="R-VIP-S-58"/><circle cx="1250.389" cy="771.821" r="3.7889999999999997" style="fill:#00c820;stroke-width:.999088" id="R-VIP-S-59"/><circle cx="1259.746" cy="769.003" r="3.7889999999999997" style="fill:#00c820;stroke-width:.999088" id="R-VIP-S-60"/><circle cx="1269.203" cy="765.904" r="3.7889999999999997" style="fill:#00c820;stroke-width:.999088" id="R-VIP-S-61"/><circle cx="1278.346" cy="762.159" r="3.7889999999999997" style="fill:#00c820;stroke-width:.999088" id="R-VIP-S-62"/><circle cx="1287.641" cy="758.406" r="3.7889999999999997" style="fill:#00c820;stroke-width:.999088" id="R-VIP-S-63"/><circle cx="1296.491" cy="754.125" r="3.7889999999999997" style="fill:#00c820;stroke-width:.999088" id="R-VIP-S-64"/><circle cx="1305.336" cy="749.939" r="3.7889999999999997" style="fill:#00c820;stroke-width:.999088" id="R-VIP-S-65"/><circle cx="1313.139" cy="745.166" r="3.7889999999999997" style="fill:#00c820;stroke-width:.999088" id="R-VIP-S-66"/><circle cx="1343.215" cy="725.354" r="3.7889999999999997" style="fill:#00c820;stroke-width:.999088" id="R-VIP-S-67"/><circle cx="1350.479" cy="719.843" r="3.7889999999999997" style="fill:#00c820;stroke-width:.999088" id="R-VIP-S-68"/><circle cx="1357.812" cy="713.657" r="3.7889999999999997" style="fill:#00c820;stroke-width:.999088" id="R-VIP-S-69"/><circle cx="1364.877" cy="707.166" r="3.7889999999999997" style="fill:#00c820;stroke-width:.999088" id="R-VIP-S-70"/><circle cx="1372.146" cy="700.248" r="3.7889999999999997" style="fill:#00c820;stroke-width:.999088" id="R-VIP-S-71"/><circle cx="1182.095" cy="798.388" r="3.7889999999999997" style="fill:#00c820;stroke-width:.999088" id="R-VIP-S-72"/><circle cx="1192.253" cy="797.801" r="3.7889999999999997" style="fill:#00c820;stroke-width:.999088" id="R-VIP-S-73"/><circle cx="1202.574" cy="797.11" r="3.7889999999999997" style="fill:#00c820;stroke-width:.999088" id="R-VIP-S-74"/><circle cx="1212.435" cy="795.84" r="3.7889999999999997" style="fill:#00c820;stroke-width:.999088" id="R-VIP-S-75"/><circle cx="1222.401" cy="794.639" r="3.7889999999999997" style="fill:#00c820;stroke-width:.999088" id="R-VIP-S-76"/><circle cx="1232.127" cy="792.553" r="3.7889999999999997" style="fill:#00c820;stroke-width:.999088" id="R-VIP-S-77"/><circle cx="1241.978" cy="790.756" r="3.7889999999999997" style="fill:#00c820;stroke-width:.999088" id="R-VIP-S-78"/><circle cx="1251.494" cy="788.045" r="3.7889999999999997" style="fill:#00c820;stroke-width:.999088" id="R-VIP-S-79"/><circle cx="1260.826" cy="785.43" r="3.7889999999999997" style="fill:#00c820;stroke-width:.999088" id="R-VIP-S-80"/><circle cx="1270.639" cy="782.278" r="3.7889999999999997" style="fill:#00c820;stroke-width:.999088" id="R-VIP-S-81"/><circle cx="1280.087" cy="778.952" r="3.7889999999999997" style="fill:#00c820;stroke-width:.999088" id="R-VIP-S-82"/><circle cx="1289.899" cy="774.973" r="3.7889999999999997" style="fill:#00c820;stroke-width:.999088" id="R-VIP-S-83"/><circle cx="1298.771" cy="770.897" r="3.7889999999999997" style="fill:#00c820;stroke-width:.999088" id="R-VIP-S-84"/><circle cx="1307.272" cy="766.683" r="3.7889999999999997" style="display:inline;fill:#00c820;stroke-width:.999088" id="R-VIP-S-85"/><circle cx="1316.201" cy="762.128" r="3.7889999999999997" style="display:inline;fill:#00c820;stroke-width:.999088" id="R-VIP-S-86"/><circle cx="1352.476" cy="737.31" r="3.7889999999999997" style="display:inline;fill:#00c820;stroke-width:.999088" id="R-VIP-S-87"/><circle cx="1361.174" cy="731.332" r="3.7889999999999997" style="display:inline;fill:#00c820;stroke-width:.999088" id="R-VIP-S-88"/><circle cx="1369.049" cy="724.872" r="3.7889999999999997" style="display:inline;fill:#00c820;stroke-width:.999088" id="R-VIP-S-89"/><circle cx="1376.768" cy="717.991" r="3.7889999999999997" style="display:inline;fill:#00c820;stroke-width:.999088" id="R-VIP-S-90"/><circle cx="1383.489" cy="711.243" r="3.7889999999999997" style="display:inline;fill:#00c820;stroke-width:.999088" id="R-VIP-S-91"/><circle cx="1181.978" cy="813.753" r="3.7889999999999997" style="display:inline;fill:#00c820;stroke-width:.999088" id="R-VIP-S-92"/><circle cx="1192.268" cy="813.732" r="3.7889999999999997" style="display:inline;fill:#00c820;stroke-width:.999088" id="R-VIP-S-93"/><circle cx="1201.85" cy="813.019" r="3.7889999999999997" style="display:inline;fill:#00c820;stroke-width:.999088" id="R-VIP-S-94"/><circle cx="1211.729" cy="811.814" r="3.7889999999999997" style="display:inline;fill:#00c820;stroke-width:.999088" id="R-VIP-S-95"/><circle cx="1221.35" cy="810.998" r="3.7889999999999997" style="display:inline;fill:#00c820;stroke-width:.999088" id="R-VIP-S-96"/><circle cx="1231.01" cy="809.386" r="3.7889999999999997" style="display:inline;fill:#00c820;stroke-width:.999088" id="R-VIP-S-97"/><circle cx="1240.73" cy="807.571" r="3.7889999999999997" style="display:inline;fill:#00c820;stroke-width:.999088" id="R-VIP-S-98"/><circle cx="1250.284" cy="805.674" r="3.7889999999999997" style="display:inline;fill:#00c820;stroke-width:.999088" id="R-VIP-S-99"/><circle cx="1259.805" cy="802.899" r="3.7889999999999997" style="display:inline;fill:#00c820;stroke-width:.999088" id="R-VIP-S-100"/><circle cx="1268.994" cy="800.187" r="3.7889999999999997" style="display:inline;fill:#00c820;stroke-width:.999088" id="R-VIP-S-101"/><circle cx="1278.491" cy="796.901" r="3.7889999999999997" style="display:inline;fill:#00c820;stroke-width:.999088" id="R-VIP-S-102"/><circle cx="1288.009" cy="793.618" r="3.7889999999999997" style="display:inline;fill:#00c820;stroke-width:.999088" id="R-VIP-S-103"/><circle cx="1297.708" cy="789.822" r="3.7889999999999997" style="display:inline;fill:#00c820;stroke-width:.999088" id="R-VIP-S-104"/><circle cx="1306.185" cy="785.785" r="3.7889999999999997" style="display:inline;fill:#00c820;stroke-width:.999088" id="R-VIP-S-105"/><circle cx="1314.336" cy="781.581" r="3.7889999999999997" style="display:inline;fill:#00c820;stroke-width:.999088" id="R-VIP-S-106"/><circle cx="1371.296" cy="743.981" r="3.7889999999999997" style="display:inline;fill:#00c820;stroke-width:.999088" id="R-VIP-S-107"/><circle cx="1379.019" cy="737.721" r="3.7889999999999997" style="display:inline;fill:#00c820;stroke-width:.999088" id="R-VIP-S-108"/><circle cx="1386.572" cy="731.096" r="3.7889999999999997" style="display:inline;fill:#00c820;stroke-width:.999088" id="R-VIP-S-109"/><circle cx="1393.693" cy="724.439" r="3.7889999999999997" style="display:inline;fill:#00c820;stroke-width:.999088" id="R-VIP-S-110"/></g></g></svg>