<?xml version="1.0" encoding="UTF-8"?>
<!DOCTYPE svg PUBLIC "-//W3C//DTD SVG 20010904//EN"
              "http://www.w3.org/TR/2001/REC-SVG-20010904/DTD/svg10.dtd">

<svg xmlns="http://www.w3.org/2000/svg"
     width="5.06333in" height="2.84in"
     viewBox="0 0 1519 852">
  <path id="R-VIP"
        fill="blue" stroke="black" stroke-width="1"
        d="M 1237.84,720.00
           C 1210.05,727.65 1176.98,727.01 1176.98,727.01
             1176.98,727.01 1176.95,819.05 1176.95,819.05
             1176.95,819.05 1226.79,818.26 1262.47,807.48
             1296.56,798.94 1321.17,782.96 1321.16,782.96
             1321.13,782.96 1312.78,770.00 1312.78,770.00
             1312.78,770.00 1323.30,763.55 1323.30,763.55
             1323.30,763.55 1314.38,750.00 1314.38,750.00
             1314.38,750.00 1320.00,747.03 1320.00,747.03
             1320.00,747.03 1285.99,697.00 1285.99,697.00
             1285.99,697.00 1264.53,712.65 1237.84,720.00 Z
           M 1307.90,683.19
           C 1307.90,683.19 1315.09,678.18 1321.86,672.20
             1329.25,665.69 1336.26,658.16 1336.26,658.16
             1336.26,658.16 1402.11,722.88 1402.11,722.88
             1402.11,722.88 1395.11,730.01 1387.60,736.67
             1379.11,744.20 1370.00,751.37 1370.00,751.37
             1370.00,751.37 1360.00,737.85 1360.00,737.85
             1360.00,737.85 1350.90,744.43 1350.90,744.43
             1350.90,744.43 1307.90,683.19 1307.90,683.19 Z" />
  <path id="Disabled"
        fill="grey" stroke="black" stroke-width="1"
        d="M 947.99,702.15
           C 947.99,702.15 948.22,675.89 948.22,675.89
             948.22,675.89 1166.51,676.00 1166.51,676.00
             1166.51,676.00 1195.81,677.06 1221.85,670.00
             1245.44,663.60 1266.01,649.01 1266.01,649.01
             1266.01,649.01 1281.13,672.21 1281.13,672.21
             1281.13,672.21 1258.50,690.77 1232.88,697.66
             1201.75,706.03 1166.54,703.03 1166.54,703.03
             1166.54,703.03 947.99,702.15 947.99,702.15 Z
           M 1370.00,544.04
           C 1367.17,558.35 1360.00,572.38 1360.00,572.38
             1360.00,572.38 1334.70,563.24 1334.70,563.24
             1334.70,563.24 1340.61,550.79 1342.88,538.33
             1345.70,522.78 1345.01,506.52 1345.01,506.52
             1345.01,506.52 1344.50,323.04 1344.50,323.04
             1344.50,323.04 1373.00,323.01 1373.00,323.01
             1373.00,323.01 1373.02,506.47 1373.02,506.47
             1373.02,506.47 1373.59,525.87 1370.00,544.04 Z" />
  <path id="Normal_10"
        fill="green" stroke="black" stroke-width="1"
        d="M 1399.02,400.00
           C 1399.02,400.00 1399.08,506.14 1399.08,506.14
             1399.08,506.14 1399.49,525.20 1397.50,541.65
             1396.01,554.05 1391.99,565.00 1391.99,565.00
             1391.99,565.00 1461.16,589.13 1461.16,589.13
             1461.16,589.13 1463.07,582.28 1463.07,582.28
             1463.07,582.28 1478.00,586.41 1478.00,586.41
             1478.00,586.41 1480.00,580.00 1480.00,580.00
             1480.00,580.00 1496.02,585.36 1496.02,585.36
             1496.02,585.36 1500.60,568.26 1502.70,550.00
             1505.14,528.80 1505.15,506.01 1505.15,506.01
             1505.15,506.01 1504.96,400.00 1504.96,400.00
             1504.96,400.00 1399.02,400.00 1399.02,400.00 Z
           M 1442.46,670.00
           C 1457.69,645.96 1468.00,619.04 1468.00,619.04
             1468.00,619.04 1383.14,592.09 1383.14,592.09
             1383.14,592.09 1363.30,627.48 1363.30,627.48
             1363.30,627.48 1376.98,636.20 1377.25,636.53
             1377.38,636.62 1375.23,640.00 1375.12,640.00
             1375.23,640.00 1388.22,650.00 1388.22,650.00
             1388.22,650.00 1382.35,658.40 1375.62,666.66
             1369.78,673.82 1362.96,680.99 1362.96,680.99
             1362.96,680.99 1403.15,721.43 1403.15,721.43
             1403.15,721.43 1425.37,696.98 1442.46,670.00 Z" />
  <path id="Normal_9"
        fill="none" stroke="black" stroke-width="1"
        d="M 1336.00,226.93
           C 1326.50,212.67 1314.96,200.00 1314.96,200.00
             1314.96,200.00 1327.03,190.00 1327.03,190.00
             1327.03,190.00 1323.55,186.46 1323.55,186.46
             1323.55,186.46 1329.49,180.41 1329.49,180.41
             1329.49,180.41 1335.01,186.08 1335.01,186.08
             1335.01,186.08 1353.04,170.00 1353.04,170.00
             1353.04,170.00 1345.99,163.02 1345.99,163.02
             1345.99,163.02 1357.99,151.02 1357.99,151.02
             1357.99,151.02 1356.01,149.06 1356.01,149.06
             1356.01,149.06 1361.92,143.14 1361.92,143.14
             1361.92,143.14 1363.99,145.01 1363.99,145.01
             1363.99,145.01 1369.74,140.00 1369.74,140.00
             1369.74,140.00 1377.98,149.12 1377.98,149.12
             1377.98,149.12 1388.96,137.98 1388.96,137.98
             1388.96,137.98 1387.96,136.97 1387.96,136.97
             1387.96,136.97 1401.06,125.99 1401.06,125.99
             1401.06,125.99 1396.53,121.32 1396.53,121.32
             1396.53,121.32 1402.20,115.84 1402.20,115.84
             1402.20,115.84 1424.98,139.55 1442.22,166.67
             1457.30,190.41 1467.13,218.01 1467.13,218.01
             1467.13,218.01 1353.05,257.18 1353.05,257.18
             1353.05,257.18 1345.55,241.26 1336.00,226.93 Z
           M 1397.74,300.00
           C 1396.10,286.66 1391.95,273.97 1391.95,273.97
             1391.95,273.97 1476.75,244.47 1476.75,244.47
             1476.75,244.47 1480.00,258.09 1480.00,258.09
             1480.00,258.09 1495.15,253.03 1495.15,253.03
             1495.15,253.03 1500.42,273.22 1502.54,290.00
             1505.31,311.96 1505.10,331.92 1505.10,331.91
             1505.10,331.87 1504.96,400.00 1504.96,400.00
             1504.96,400.00 1399.05,400.00 1399.05,400.00
             1399.05,400.00 1399.08,332.02 1399.08,332.02
             1399.08,332.02 1399.64,315.52 1397.74,300.00 Z" />
  <path id="Normal_8"
        fill="none" stroke="black" stroke-width="1"
        d="M 1102.99,19.00
           C 1102.99,19.00 1186.03,18.99 1186.03,18.99
             1186.03,18.99 1185.96,3.00 1185.96,3.00
             1185.96,3.00 1210.14,3.66 1234.20,7.66
             1254.92,11.11 1276.02,17.98 1276.02,17.98
             1276.02,17.98 1273.08,26.95 1273.08,26.95
             1273.08,26.95 1268.11,24.64 1262.74,22.87
             1257.58,21.17 1250.85,20.00 1250.85,20.00
             1250.85,20.00 1218.05,129.14 1218.05,129.14
             1218.05,129.14 1204.02,126.10 1190.00,125.07
             1175.48,124.01 1160.95,124.97 1160.95,124.97
             1160.95,124.97 1161.01,100.00 1161.01,100.00
             1161.01,100.00 1102.94,100.00 1102.94,100.00
             1102.94,100.00 1102.99,19.00 1102.99,19.00 Z
           M 1346.04,70.00
           C 1313.18,49.39 1275.05,36.05 1275.05,36.05
             1275.05,36.05 1241.10,152.14 1241.10,152.14
             1241.10,152.14 1261.78,158.20 1280.00,170.00
             1298.71,182.12 1314.98,200.00 1314.98,200.00
             1314.98,200.00 1327.04,190.00 1327.04,190.00
             1327.04,190.00 1323.53,186.47 1323.53,186.47
             1323.53,186.47 1329.48,180.42 1329.48,180.42
             1329.48,180.42 1335.01,186.11 1335.01,186.11
             1335.01,186.11 1353.02,170.00 1353.02,170.00
             1353.02,170.00 1346.01,163.04 1346.01,163.04
             1346.01,163.04 1358.02,151.03 1358.02,151.03
             1358.02,151.03 1356.01,149.05 1356.01,149.05
             1356.01,149.05 1361.92,143.14 1361.92,143.14
             1361.92,143.14 1363.99,145.02 1363.99,145.02
             1363.99,145.02 1369.74,140.00 1369.74,140.00
             1369.74,140.00 1377.98,149.11 1377.98,149.11
             1377.98,149.11 1388.98,137.98 1388.98,137.98
             1388.98,137.98 1387.98,136.97 1387.98,136.97
             1387.98,136.97 1394.96,131.10 1394.96,131.10
             1394.96,131.10 1401.06,126.00 1401.06,126.00
             1401.06,126.00 1396.53,121.35 1396.53,121.35
             1396.53,121.35 1402.19,115.82 1402.19,115.82
             1402.19,115.82 1376.68,89.22 1346.04,70.00 Z" />
  <path id="Normal_7"
        fill="none" stroke="black" stroke-width="1"
        d="M 940.00,18.98
           C 940.00,18.98 940.00,109.00 940.00,109.00
             940.00,109.00 1018.00,109.00 1018.00,109.00
             1018.00,109.00 1018.00,140.99 1018.00,140.99
             1018.00,140.99 1037.00,141.00 1037.00,141.00
             1037.00,141.00 1037.00,34.98 1037.00,34.98
             1037.00,34.98 1027.00,35.01 1027.00,35.01
             1027.00,35.01 1027.03,19.03 1027.03,19.03
             1027.03,19.03 1037.06,19.03 1037.06,19.03
             1037.06,19.03 1037.00,3.00 1037.00,3.00
             1037.00,3.00 959.01,2.99 959.01,2.99
             959.01,2.99 959.00,18.99 959.00,18.99
             959.00,18.99 940.00,18.98 940.00,18.98 Z
           M 1064.06,124.96
           C 1064.06,124.96 1102.92,125.03 1102.92,125.03
             1102.92,125.03 1103.00,19.01 1103.00,19.01
             1103.00,19.01 1103.00,11.02 1103.00,11.02
             1103.00,11.02 1151.99,11.01 1151.99,11.01
             1151.99,11.01 1151.99,3.02 1151.99,3.02
             1151.99,3.02 1073.99,2.98 1073.99,2.98
             1073.99,2.98 1074.05,35.00 1074.05,35.00
             1074.05,35.00 1063.99,35.01 1063.99,35.01
             1063.99,35.01 1064.06,124.96 1064.06,124.96 Z" />
  <path id="Normal_6"
        fill="none" stroke="black" stroke-width="1"
        d="M 758.98,19.00
           C 758.98,19.00 759.00,92.00 759.00,92.00
             759.00,92.00 856.00,92.00 856.00,92.00
             856.00,92.00 856.15,19.00 856.15,19.00
             856.15,19.00 881.99,19.00 881.99,19.00
             881.99,19.00 882.00,91.98 882.00,91.98
             882.00,91.98 891.92,92.00 891.92,92.00
             891.92,92.00 892.01,108.96 892.01,108.96
             892.01,108.96 940.00,109.00 940.00,109.00
             940.00,109.00 940.00,18.98 940.00,18.98
             940.00,18.98 916.98,19.03 916.98,19.03
             916.98,19.03 917.00,2.99 917.00,2.99
             917.00,2.99 840.00,3.00 840.00,3.00
             840.00,3.00 840.00,18.98 840.00,18.98
             840.00,18.98 758.98,19.00 758.98,19.00 Z" />
  <path id="Normal_5"
        fill="none" stroke="black" stroke-width="1"
        d="M 578.55,19.00
           C 578.55,19.00 578.51,109.00 578.51,109.00
             578.51,109.00 627.00,109.00 627.00,109.00
             627.00,109.00 626.98,92.00 626.98,92.00
             626.98,92.00 637.00,92.00 637.00,92.00
             637.00,92.00 637.06,19.00 637.06,19.00
             637.06,19.00 663.90,19.04 663.90,19.04
             663.90,19.04 663.99,92.00 663.99,92.00
             663.99,92.00 759.01,92.00 759.01,92.00
             759.01,92.00 759.07,19.00 758.98,19.00
             758.90,19.00 679.01,19.00 679.01,19.00
             679.01,19.00 678.95,3.00 679.01,3.00
             679.06,3.00 600.99,3.02 600.99,3.02
             600.99,3.02 601.03,19.00 601.03,19.00
             601.03,19.00 578.55,19.00 578.55,19.00 Z" />
  <path id="Normal_4"
        fill="none" stroke="black" stroke-width="1"
        d="M 416.01,19.01
           C 416.01,19.01 416.00,125.00 416.00,125.00
             416.00,125.00 455.01,125.00 455.01,125.00
             455.01,125.00 455.06,34.98 455.06,34.98
             455.06,34.98 444.99,34.94 444.99,34.94
             444.99,34.94 444.99,19.08 444.99,19.08
             444.99,19.08 445.03,2.98 445.03,2.98
             445.03,2.98 367.03,3.06 367.03,3.06
             367.03,3.06 367.00,10.98 367.00,10.98
             367.01,10.98 416.02,11.03 416.02,11.03
             416.02,11.03 416.01,19.01 416.01,19.01 Z
           M 482.09,140.95
           C 482.09,140.95 500.97,141.03 500.97,141.03
             500.97,141.03 500.97,108.99 500.97,108.99
             500.97,108.99 578.51,109.00 578.51,109.00
             578.51,109.00 578.55,19.00 578.55,19.00
             578.55,19.00 560.00,19.01 560.00,19.01
             560.00,19.01 560.00,3.04 560.00,3.04
             560.00,3.04 481.99,3.04 481.99,3.04
             481.99,3.04 482.03,11.01 482.03,11.01
             482.03,11.01 492.02,11.08 492.02,11.08
             492.02,11.08 491.98,35.09 491.98,35.09
             491.98,35.09 481.95,35.09 481.95,35.09
             481.95,35.09 482.09,140.95 482.09,140.95 Z" />
  <path id="Normal_3"
        fill="none" stroke="black" stroke-width="1"
        d="M 239.38,170.65
           C 219.92,183.66 204.06,200.93 204.06,200.93
             204.06,200.93 192.03,190.00 192.03,190.00
             192.03,190.00 193.56,188.48 193.56,188.48
             193.56,188.48 181.25,177.07 181.25,177.07
             181.25,177.07 178.00,181.02 178.00,181.02
             178.00,181.02 166.09,170.00 166.09,170.00
             166.09,170.00 168.19,168.10 168.19,168.10
             168.19,168.10 156.05,156.93 156.05,156.93
             156.05,156.93 152.03,161.07 152.03,161.07
             152.03,161.07 140.76,150.00 140.76,150.00
             140.76,150.00 135.01,156.15 135.01,156.15
             135.01,156.15 117.92,137.88 117.92,137.88
             117.92,137.88 120.91,135.03 120.91,135.03
             120.91,135.03 108.90,123.79 108.90,123.79
             108.90,123.79 137.04,91.79 170.00,70.00
             204.09,47.46 243.03,35.10 243.03,35.10
             243.03,35.10 277.13,152.08 277.13,152.08
             277.13,152.08 256.27,159.36 239.38,170.65 Z
           M 257.32,22.35
           C 251.45,23.97 245.59,26.11 245.59,26.11
             245.59,26.11 242.75,18.80 242.75,18.80
             242.75,18.80 259.10,12.74 280.00,9.09
             304.00,4.90 332.99,3.06 332.99,3.06
             332.99,3.06 332.99,19.08 332.99,19.08
             332.99,19.08 416.00,19.02 416.00,19.02
             416.00,19.02 416.04,100.00 416.04,100.00
             416.04,100.00 356.94,100.00 356.94,100.00
             356.94,100.00 356.99,124.94 356.99,124.94
             356.99,124.94 340.53,124.26 325.54,125.34
             312.12,126.32 300.00,129.07 300.00,129.07
             300.00,129.07 270.00,27.94 270.00,27.94
             270.00,27.94 267.87,20.00 267.87,20.00
             267.87,20.00 262.55,20.92 257.32,22.35 Z" />
  <path id="Normal_2"
        fill="none" stroke="black" stroke-width="1"
        d="M 13.00,400.00
           C 13.00,400.00 151.99,400.00 151.99,400.00
             151.99,400.00 151.92,396.95 151.43,331.84
             150.57,304.44 158.02,283.94 158.02,283.94
             158.02,283.94 57.99,251.08 57.99,251.08
             57.99,251.08 22.00,254.08 22.00,254.08
             22.00,254.08 17.89,272.74 15.67,291.94
             13.43,311.30 13.07,331.21 13.07,331.21
             13.07,331.21 13.00,400.00 13.00,400.00 Z
           M 181.88,228.35
           C 172.38,242.77 165.95,258.90 165.95,258.90
             165.95,258.90 50.39,218.30 50.39,218.30
             50.39,218.30 60.77,191.14 75.08,168.03
             90.02,143.90 108.91,123.79 108.91,123.79
             108.91,123.79 120.91,135.03 120.91,135.03
             120.91,135.03 117.91,137.90 117.91,137.90
             117.91,137.90 135.03,156.17 135.03,156.17
             135.03,156.17 140.78,150.00 140.78,150.00
             140.78,150.00 152.02,161.09 152.02,161.09
             152.02,161.09 156.04,156.94 156.04,156.94
             156.04,156.94 168.18,168.12 168.18,168.12
             168.18,168.12 166.07,170.00 166.07,170.00
             166.07,170.00 178.02,181.02 178.02,181.02
             178.02,181.02 181.28,177.06 181.28,177.06
             181.28,177.06 193.54,188.47 193.54,188.47
             193.54,188.47 192.01,190.00 192.01,190.00
             192.01,190.00 204.08,200.95 204.08,200.95
             204.08,200.95 191.45,213.80 181.88,228.35 Z" />
  <path id="Normal_1"
        fill="none" stroke="black" stroke-width="1"
        d="M 116.03,657.34
           C 130.62,679.33 149.00,697.07 149.00,697.07
             149.00,697.07 120.00,726.10 120.00,726.10
             120.00,726.10 97.20,703.46 80.00,678.00
             63.72,653.90 52.98,626.91 52.98,626.91
             52.98,626.91 91.93,611.09 91.93,611.09
             91.93,611.09 102.10,636.37 116.03,657.34 Z
           M 153.10,533.76
           C 154.44,544.84 157.85,554.40 157.85,554.40
             157.85,554.40 75.28,588.59 75.28,588.59
             75.28,588.59 75.22,588.05 73.11,582.76
             56.94,588.12 72.85,582.79 56.94,588.09
             55.13,582.37 55.01,581.97 55.01,581.97
             55.01,581.97 40.00,585.99 40.00,585.99
             40.00,585.99 38.07,580.00 38.07,580.00
             38.07,580.00 23.11,585.06 23.11,585.06
             23.11,585.06 18.93,571.28 16.80,554.53
             14.00,532.48 13.05,505.98 13.05,505.98
             13.05,505.98 13.01,400.00 13.01,400.00
             13.01,400.00 152.00,400.00 152.00,400.00
             152.00,400.00 152.01,506.01 152.01,506.01
             152.01,506.01 151.54,520.80 153.10,533.76 Z" />
  <path id="VIP-Disabled"
        fill="none" stroke="black" stroke-width="1"
        d="M 381.89,783.00
           C 381.89,783.00 440.99,783.08 440.99,783.08
             440.99,783.08 440.99,812.01 440.99,812.01
             440.99,812.01 381.97,812.01 381.97,812.01
             381.97,812.01 381.89,783.00 381.89,783.00 Z
           M 613.06,783.02
           C 613.06,783.02 673.04,783.06 673.04,783.06
             673.04,783.06 672.98,811.93 672.98,811.93
             672.98,811.93 613.02,812.01 613.02,812.01
             613.02,812.01 613.06,783.02 613.06,783.02 Z
           M 845.99,783.04
           C 845.99,783.04 907.96,783.01 907.96,783.01
             907.96,783.01 907.99,811.97 907.99,811.97
             907.99,811.97 845.99,811.94 845.99,811.94
             845.99,811.94 845.99,783.04 845.99,783.04 Z
           M 1076.99,783.02
           C 1076.99,783.02 1137.00,783.13 1137.00,783.13
             1137.00,783.13 1136.96,811.97 1136.96,811.97
             1136.96,811.97 1076.96,811.97 1076.96,811.97
             1076.96,811.97 1076.99,783.02 1076.99,783.02 Z" />
  <path id="L-VIP"
        fill="none" stroke="black" stroke-width="1"
        d="M 273.56,812.08
           C 307.85,820.32 342.06,818.02 342.06,818.02
             342.06,818.02 342.02,726.94 342.02,726.94
             342.02,726.94 310.88,727.57 283.08,720.00
             255.93,712.60 232.10,696.99 232.10,696.99
             232.10,696.99 200.00,746.96 200.00,746.96
             200.00,746.96 204.88,750.00 204.88,750.00
             204.88,750.00 195.99,763.12 195.99,763.12
             195.99,763.12 197.94,764.86 200.00,766.20
             202.46,767.80 205.12,769.04 205.12,769.04
             205.12,769.04 196.08,782.92 196.08,782.92
             196.08,782.92 235.10,802.83 273.56,812.08 Z
           M 197.70,673.08
           C 202.99,677.63 210.00,682.77 210.00,682.77
             210.00,682.77 176.75,732.39 176.75,732.39
             176.75,732.39 173.34,730.00 173.34,730.00
             173.34,730.00 165.10,743.13 165.10,743.13
             165.10,743.13 154.23,735.01 154.23,735.01
             154.23,735.01 144.41,747.58 144.41,747.58
             144.41,747.58 122.15,727.55 122.15,727.55
             122.15,727.55 187.48,663.39 187.48,663.39
             187.48,663.39 191.76,667.98 197.70,673.08 Z" />
  <path id="VVIP"
        fill="none" stroke="black" stroke-width="1"
        d="M 490.00,785.98
           C 490.00,785.98 563.04,786.04 563.04,786.04
             563.04,786.04 563.14,799.11 563.14,799.11
             563.14,799.11 553.01,799.11 553.01,799.11
             553.01,799.11 553.02,815.91 553.02,815.91
             553.02,815.91 500.00,815.98 500.00,815.98
             500.00,815.98 500.00,799.01 500.00,799.01
             500.00,799.01 490.00,799.01 490.00,799.01
             490.00,799.01 490.00,785.98 490.00,785.98 Z
           M 722.99,786.03
           C 722.99,786.03 796.00,785.99 796.00,785.99
             796.00,785.99 796.04,799.04 796.04,799.04
             796.04,799.04 786.05,799.02 786.05,799.02
             786.05,799.02 786.00,816.00 786.00,816.00
             786.00,816.00 733.02,816.03 733.02,816.03
             733.02,816.03 733.02,798.99 733.02,798.99
             733.02,798.99 722.97,798.98 722.97,798.98
             722.97,798.98 722.99,786.03 722.99,786.03 Z
           M 955.03,786.02
           C 955.03,786.02 1027.99,786.02 1027.99,786.02
             1027.99,786.02 1028.02,800.00 1028.02,800.00
             1028.02,800.00 1018.02,800.00 1018.02,800.00
             1018.02,800.00 1018.00,816.00 1018.00,816.00
             1018.00,816.00 964.98,815.98 964.98,815.98
             964.98,815.98 965.02,800.00 965.02,800.00
             965.02,800.00 955.01,800.00 955.01,800.00
             955.01,800.00 955.03,786.02 955.03,786.02 Z" />
  <path id="VIP"
        fill="none" stroke="black" stroke-width="1"
        d="M 344.93,800.00
           C 344.93,800.00 378.92,800.00 378.92,800.00
             378.92,800.00 378.92,780.00 378.92,780.00
             378.92,780.00 397.99,780.00 397.99,780.00
             397.99,780.00 398.16,727.04 398.16,727.04
             398.16,727.04 344.87,726.98 344.87,726.98
             344.87,726.98 344.93,800.00 344.93,800.00 Z
           M 428.00,727.00
           C 428.00,727.00 427.97,780.00 427.97,780.00
             427.97,780.00 445.99,780.00 445.99,780.00
             445.99,780.00 445.96,799.01 445.96,799.01
             445.96,799.01 468.01,799.01 468.01,799.01
             468.01,799.01 467.98,780.00 467.98,780.00
             467.98,780.00 587.02,780.00 587.02,780.00
             587.02,780.00 587.02,799.00 587.02,799.00
             587.02,799.00 609.06,798.96 609.06,798.96
             609.06,798.96 609.02,780.00 609.02,780.00
             609.02,780.00 626.96,780.00 626.96,780.00
             626.96,780.00 627.02,727.05 627.02,727.05
             627.02,727.05 428.00,727.00 428.00,727.00 Z
           M 660.00,727.02
           C 660.00,727.02 660.00,780.00 660.00,780.00
             660.00,780.00 677.01,780.00 677.01,780.00
             677.01,780.00 677.04,799.00 677.04,799.00
             677.04,799.00 699.00,799.00 699.00,799.00
             699.00,799.00 698.97,780.00 698.97,780.00
             698.97,780.00 819.07,780.00 819.07,780.00
             819.07,780.00 819.04,798.97 819.04,798.97
             819.04,798.97 842.94,799.03 842.94,799.03
             842.94,799.03 843.08,780.00 843.08,780.00
             843.08,780.00 858.95,780.00 858.95,780.00
             858.95,780.00 858.98,727.03 858.98,727.03
             858.98,727.03 794.92,727.06 794.92,727.06
             794.92,727.06 794.98,746.00 794.98,746.00
             794.98,746.00 724.03,745.97 724.03,745.97
             724.03,745.97 723.94,727.00 723.94,727.00
             723.94,727.00 660.00,727.02 660.00,727.02 Z
           M 891.95,727.02
           C 891.95,727.02 891.94,780.00 891.94,780.00
             891.94,780.00 910.00,780.00 910.00,780.00
             910.00,780.00 910.00,799.00 910.00,799.00
             910.00,799.00 931.98,799.00 931.98,799.00
             931.98,799.00 931.94,780.00 931.94,780.00
             931.94,780.00 954.99,780.00 954.99,780.00
             954.99,780.00 1028.02,780.00 1028.02,780.00
             1028.02,780.00 1051.94,780.00 1051.94,780.00
             1051.94,780.00 1052.05,799.01 1052.05,799.01
             1052.05,799.01 1073.99,798.98 1073.99,798.98
             1073.99,798.98 1074.01,780.00 1074.01,780.00
             1074.01,780.00 1092.01,780.00 1092.01,780.00
             1092.01,780.00 1092.02,726.99 1092.02,726.99
             1092.02,726.99 891.95,727.02 891.95,727.02 Z
           M 1120.99,727.01
           C 1120.99,727.01 1121.01,780.00 1121.01,780.00
             1121.01,780.00 1141.96,780.00 1141.96,780.00
             1141.96,780.00 1142.03,799.01 1142.03,799.01
             1142.03,799.01 1172.99,799.01 1172.99,799.01
             1172.99,799.01 1172.93,726.99 1172.93,726.99
             1172.93,726.99 1120.99,727.01 1120.99,727.01 Z" />
</svg>
